<svg width="46" height="36" viewBox="0 0 46 36" fill="none" xmlns="http://www.w3.org/2000/svg">
<path d="M38.3005 3.49765C35.3737 2.12828 32.2443 1.13308 28.9725 0.566406C28.5707 1.29286 28.1013 2.26997 27.7776 3.04725C24.2997 2.5242 20.8537 2.5242 17.4397 3.04725C17.1161 2.26997 16.636 1.29286 16.2306 0.566406C12.9553 1.13308 9.82227 2.13194 6.89549 3.5049C0.99215 12.4256 -0.608149 21.1248 0.192002 29.7004C4.10741 32.6243 7.90191 34.4005 11.6324 35.5628C12.5534 34.2952 13.3749 32.9476 14.0826 31.5274C12.7348 31.0153 11.4439 30.3833 10.2241 29.6496C10.5477 29.4098 10.8643 29.1592 11.1701 28.9013C18.6097 32.381 26.693 32.381 34.0437 28.9013C34.3531 29.1592 34.6696 29.4098 34.9896 29.6496C33.7663 30.3869 32.4719 31.0189 31.1241 31.5311C31.8318 32.9476 32.6497 34.2988 33.5743 35.5664C37.3084 34.4041 41.1064 32.628 45.0218 29.7004C45.9606 19.7591 43.4179 11.1398 38.3005 3.49765ZM15.0961 24.4265C12.8628 24.4265 11.0314 22.3415 11.0314 19.8026C11.0314 17.2637 12.8237 15.1752 15.0961 15.1752C17.3686 15.1752 19.2 17.2601 19.1609 19.8026C19.1645 22.3415 17.3686 24.4265 15.0961 24.4265ZM30.1177 24.4265C27.8844 24.4265 26.0529 22.3415 26.0529 19.8026C26.0529 17.2637 27.8452 15.1752 30.1177 15.1752C32.3901 15.1752 34.2215 17.2601 34.1824 19.8026C34.1824 22.3415 32.3901 24.4265 30.1177 24.4265Z" fill="black"/>
</svg>
