<svg width="38" height="33" viewBox="0 0 38 33" fill="none" xmlns="http://www.w3.org/2000/svg">
<path fill-rule="evenodd" clip-rule="evenodd" d="M37.3647 0.293578C37.7075 0.580255 37.873 1.027 37.7994 1.4678L32.7573 31.7211C32.6868 32.1429 32.4075 32.5004 32.015 32.6705C31.6224 32.8406 31.1704 32.7999 30.8147 32.5626L15.688 22.4782C15.394 22.2824 15.1958 21.9719 15.1416 21.6228C15.0874 21.2736 15.1822 20.9178 15.4029 20.6419L20.4154 14.3764L12.0442 19.9572C11.6678 20.208 11.1859 20.2381 10.7813 20.0358L0.696828 14.9936C0.245171 14.7677 -0.0281336 14.2942 0.00230354 13.7901C0.0327408 13.2861 0.361044 12.8488 0.836594 12.679L36.1321 0.0734552C36.553 -0.0768468 37.0218 0.00690176 37.3647 0.293578ZM4.46642 14.0597L11.2544 17.4537L25.7724 7.77504C26.2896 7.43028 26.9808 7.5139 27.4007 7.97203C27.8208 8.43014 27.8442 9.12603 27.456 9.61135L18.2304 21.1432L30.591 29.3835L34.9599 3.16911L4.46642 14.0597Z" fill="#231F20"/>
</svg>
