<svg width="100" height="100" viewBox="0 0 100 100" fill="none" xmlns="http://www.w3.org/2000/svg">
<path d="M50 0L94.1917 25V75L50 100L5.80832 75V25L50 0Z" fill="white"/>
<path d="M86.3 73.275L51.4583 92.9833V77.6333L73.1667 65.6917L86.3 73.275ZM88.6833 71.1167V29.9L75.9333 37.2583V63.75L88.6833 71.1167ZM13.5583 73.275L48.4 92.9833V77.6333L26.6917 65.6917L13.5583 73.275ZM11.175 71.1167V29.9L23.925 37.2583V63.75L11.175 71.1167ZM12.6667 27.2333L48.4 7.01666V21.8583L25.5083 34.45L25.3333 34.55L12.6667 27.2333ZM87.1917 27.2333L51.4583 7.01666V21.8583L74.35 34.45L74.525 34.55L87.1917 27.2333Z" fill="#8ED6FB"/>
<path d="M48.4 74.1417L26.9833 62.3667V39.0334L48.4 51.4V74.1417ZM51.4583 74.1417L72.875 62.3667V39.0334L51.4583 51.4V74.1417ZM28.4333 36.3334L49.9333 24.5084L71.4333 36.3334L49.9333 48.75L28.4333 36.3334Z" fill="#1C78C0"/>
</svg>
