<?xml version="1.0" standalone="no"?>
<!DOCTYPE svg PUBLIC "-//W3C//DTD SVG 20010904//EN"
 "http://www.w3.org/TR/2001/REC-SVG-20010904/DTD/svg10.dtd">
<svg version="1.0" xmlns="http://www.w3.org/2000/svg"
 width="628.000000pt" height="628.000000pt" viewBox="0 0 628.000000 628.000000"
 preserveAspectRatio="xMidYMid meet">

<g transform="translate(0.000000,628.000000) scale(0.100000,-0.100000)"
fill="#000000" stroke="none">
<path d="M0 3140 l0 -3140 3140 0 3140 0 0 3140 0 3140 -3140 0 -3140 0 0
-3140z m6190 10 l0 -3050 -3050 0 -3050 0 0 3050 0 3050 3050 0 3050 0 0
-3050z"/>
<path d="M190 3140 l0 -2950 2950 0 2950 0 0 2950 0 2950 -2950 0 -2950 0 0
-2950z m5005 2898 c42 -22 65 -51 65 -85 0 -27 -4 -33 -21 -33 -11 0 -32 9
-46 20 -33 26 -83 26 -116 0 -37 -29 -40 -51 -17 -119 30 -91 27 -131 -16
-191 -20 -28 -47 -53 -60 -56 -77 -19 -214 56 -235 129 -5 17 -9 66 -9 109 0
76 0 77 -32 96 -66 40 -68 39 -198 -50 -107 -73 -126 -83 -164 -82 -79 2 -136
58 -136 134 0 33 15 70 34 82 16 11 62 10 89 -3 l25 -11 -24 -36 c-13 -19 -24
-38 -24 -41 0 -18 28 -41 57 -47 28 -6 38 -1 86 45 68 64 108 81 197 81 132 0
170 -37 170 -165 0 -91 18 -131 67 -144 55 -16 77 -14 107 10 33 26 37 96 6
124 -45 40 -52 151 -13 204 11 14 35 32 54 38 36 13 119 8 154 -9z m-4921 6
c22 -9 20 -31 -4 -44 -24 -13 -40 -5 -40 19 0 29 14 37 44 25z m1352 -35 c27
-28 34 -70 20 -126 -6 -27 -3 -36 18 -58 33 -32 80 -34 100 -2 9 13 14 45 13
79 -1 67 14 89 78 114 63 24 204 17 266 -14 54 -26 90 -83 91 -142 0 -47 -7
-58 -60 -88 l-40 -22 9 40 c19 84 -40 151 -142 158 -68 5 -117 -9 -150 -44
-21 -23 -22 -27 -10 -57 28 -68 27 -72 -27 -95 -86 -37 -233 -26 -247 18 -3
10 -1 48 6 84 14 81 5 96 -55 96 -32 0 -61 -12 -131 -54 -50 -29 -91 -50 -93
-46 -5 14 28 73 62 108 56 60 114 82 204 79 52 -3 67 -7 88 -28z m1091 -2 c26
-14 62 -40 80 -59 30 -31 99 -165 90 -175 -12 -11 -56 11 -61 30 -9 35 -65 96
-109 119 -76 39 -222 22 -241 -27 -11 -29 -6 -70 10 -93 9 -13 14 -25 13 -27
-12 -11 -88 -7 -108 7 -30 21 -41 115 -18 152 19 29 97 84 135 97 47 15 156 3
209 -24z m1317 22 c79 -22 125 -102 112 -193 -9 -55 -50 -107 -109 -137 -28
-15 -37 -25 -34 -37 23 -72 25 -70 -98 -100 -131 -33 -211 -35 -414 -12 -220
24 -196 23 -215 4 -24 -23 -20 -61 9 -80 22 -15 41 -15 198 -4 169 13 176 12
276 -10 88 -20 106 -28 124 -52 17 -23 28 -28 63 -28 75 0 173 -81 233 -195
24 -45 17 -55 -38 -55 l-34 0 8 -110 c3 -60 4 -118 0 -129 -7 -23 -59 -41
-121 -41 -34 0 -43 4 -52 24 -6 14 -20 29 -30 35 -15 8 -24 5 -43 -15 -13 -14
-44 -38 -68 -52 -84 -49 -239 -25 -288 44 -12 16 -28 54 -37 84 -22 75 -45
246 -35 262 4 7 10 10 11 8 21 -28 39 -69 62 -140 52 -162 56 -170 97 -196 52
-33 96 -31 147 5 51 38 57 58 41 134 -12 54 -22 70 -78 130 -130 137 -296 188
-703 213 l-107 7 43 51 c59 69 77 109 83 178 3 33 11 58 17 58 61 0 603 43
641 50 119 25 220 63 257 98 50 48 64 82 46 119 -11 24 -20 28 -61 31 -49 3
-49 3 -147 -88 -54 -50 -116 -98 -137 -107 -24 -10 -80 -18 -154 -21 -134 -5
-197 10 -256 61 -34 30 -35 33 -30 83 6 63 22 89 63 109 51 24 98 18 174 -20
50 -25 83 -35 117 -35 66 0 83 -13 49 -35 -32 -21 -90 -16 -156 14 -57 26 -81
26 -114 0 -22 -17 -26 -28 -24 -57 5 -56 42 -77 136 -77 106 0 170 28 307 136
61 47 117 89 125 92 26 9 103 7 144 -4z m-3582 -41 c34 -10 39 -15 36 -37 -2
-15 -10 -27 -20 -29 -20 -4 -68 40 -68 63 0 18 2 18 52 3z m365 -40 c38 -37
41 -48 13 -48 -39 0 -90 -29 -110 -62 -25 -42 -25 -79 1 -155 11 -34 19 -79
17 -100 l-3 -38 -18 39 c-10 22 -31 61 -47 88 -52 84 -50 238 5 286 41 34 100
30 142 -10z m2265 20 c18 -15 48 -59 48 -70 0 -5 -22 -8 -50 -8 -36 0 -55 -5
-69 -19 -19 -19 -41 -79 -41 -113 0 -22 -10 -23 -35 -4 -14 10 -18 25 -16 70
3 104 38 156 106 156 23 0 48 -6 57 -12z m2428 -7 c15 -29 12 -87 -5 -101 -37
-31 -109 55 -85 100 15 27 75 28 90 1z m-5152 -32 c65 -22 48 -85 -20 -76 -47
6 -68 22 -68 52 0 35 33 43 88 24z m5544 -15 c59 -31 86 -155 57 -270 -14 -56
-47 -84 -141 -119 -178 -67 -204 -85 -214 -147 -6 -32 -4 -35 27 -44 27 -8 34
-15 34 -34 0 -22 -6 -26 -49 -34 -46 -9 -50 -8 -72 18 -18 20 -24 39 -24 74 0
43 4 52 43 88 61 59 106 90 203 143 82 43 88 48 101 91 18 63 10 93 -33 113
-68 33 -125 13 -140 -49 -4 -14 -4 -55 -1 -90 6 -62 6 -64 -19 -70 -33 -8 -41
4 -49 76 -10 89 14 166 67 214 24 21 57 45 73 52 34 16 93 11 137 -12z m-4809
-13 c28 -11 67 -49 67 -65 0 -7 -26 -11 -66 -11 -62 0 -68 -3 -95 -33 -28 -31
-35 -59 -29 -122 2 -28 21 -67 74 -154 38 -63 44 -100 25 -154 -9 -26 -7 -36
15 -69 15 -22 36 -66 47 -99 18 -51 21 -74 16 -169 -8 -165 -28 -217 -169
-452 -43 -73 -90 -157 -103 -187 -13 -30 -29 -57 -34 -61 -34 -20 20 131 80
227 42 67 122 227 145 292 25 68 13 227 -23 311 -19 45 -60 95 -79 95 -6 0
-14 -14 -18 -30 -8 -43 -48 -80 -87 -80 -17 0 -67 16 -110 36 -92 41 -108 39
-149 -18 l-30 -40 -10 26 c-17 45 -12 94 11 117 19 19 30 21 80 16 l59 -5 0
49 c0 27 3 49 6 49 12 0 50 -24 75 -47 24 -22 28 -23 65 -11 36 13 39 16 38
51 -1 29 -11 47 -46 85 -53 57 -66 103 -44 156 14 33 17 35 41 26 56 -21 59
-18 52 74 -5 67 -3 90 11 116 21 41 58 69 103 80 48 11 55 11 82 1z m4298 -21
c22 -12 26 -59 7 -78 -19 -19 -66 -14 -88 8 -19 19 -27 60 -13 73 10 11 72 8
94 -3z m-161 -25 c27 -14 51 -68 36 -83 -10 -10 -71 -5 -95 7 -26 15 -29 65
-3 80 23 14 28 13 62 -4z m-4686 -17 c16 -26 -4 -71 -36 -82 -61 -21 -99 29
-62 82 12 18 24 22 51 20 20 -2 41 -10 47 -20z m5010 -44 c30 -29 14 -84 -24
-84 -9 0 -27 11 -40 25 -20 21 -22 28 -12 50 13 29 52 34 76 9z m-5216 -28 c4
-33 -10 -46 -51 -46 -33 0 -44 22 -28 56 9 21 17 25 44 22 27 -3 33 -7 35 -32z
m4983 -37 c15 -15 19 -30 17 -62 l-3 -42 -47 -3 c-39 -3 -49 1 -62 20 -23 33
-20 74 6 92 31 22 64 20 89 -5z m139 -21 c27 -45 27 -144 -1 -225 -38 -115
-175 -237 -301 -269 -68 -18 -171 -15 -222 5 -45 18 -20 31 80 41 238 25 350
101 400 272 14 47 14 51 -12 107 -30 68 -26 101 12 101 17 0 30 -10 44 -32z
m-5021 -4 c22 -18 31 -35 31 -55 0 -27 -2 -29 -40 -29 -42 0 -80 26 -80 55 0
16 35 55 49 55 5 0 23 -12 40 -26z m152 6 c22 -12 25 -48 7 -73 -19 -25 -62
-1 -66 37 -5 40 21 56 59 36z m2313 -9 c41 -34 -2 -99 -97 -145 -28 -14 -119
-50 -201 -81 -160 -58 -201 -84 -251 -157 -27 -39 -71 -132 -89 -190 -4 -15
-17 -18 -73 -18 -76 0 -193 -19 -295 -48 -38 -11 -68 -17 -68 -13 -10 133 -20
215 -29 224 -6 6 -11 20 -11 30 0 24 -134 158 -182 183 -18 10 -114 41 -213
71 -206 61 -230 78 -184 124 21 21 27 21 188 15 91 -4 200 -12 241 -18 53 -7
128 -7 260 1 102 6 313 15 470 22 157 6 290 13 295 15 25 9 225 -3 239 -15z
m84 -86 c3 -20 -5 -36 -29 -61 -58 -59 -100 -81 -273 -139 -236 -78 -271 -105
-306 -239 -14 -54 -18 -61 -40 -61 -22 0 -25 4 -24 32 3 49 48 137 98 191 53
56 111 90 216 125 41 14 122 45 180 69 l104 43 15 48 c14 44 16 46 35 33 12
-7 22 -26 24 -41z m1342 6 c275 -42 540 -113 706 -191 60 -29 120 -56 134 -62
25 -10 25 -10 -15 -29 -33 -15 -65 -19 -177 -19 -75 0 -143 -3 -152 -6 -22 -8
-20 -50 3 -73 21 -21 195 -81 234 -81 29 0 117 -89 146 -147 12 -23 28 -70 36
-104 12 -54 12 -66 0 -90 -14 -25 -18 -27 -47 -18 -18 5 -34 9 -35 9 -2 0 -3
-26 -3 -59 0 -46 -5 -66 -26 -96 -69 -102 -157 -119 -252 -48 -55 41 -78 114
-52 164 15 27 26 24 38 -11 22 -63 97 -62 140 1 30 43 26 69 -24 172 -63 132
-191 255 -345 332 -225 114 -356 164 -564 215 l-110 27 78 37 c42 21 77 40 77
42 0 3 -5 14 -10 25 -6 11 -8 24 -4 30 7 12 5 12 224 -20z m-3939 -41 c23 -13
25 -53 3 -74 -20 -21 -63 -20 -86 1 -21 18 -24 69 -5 76 22 9 68 7 88 -3z
m306 -104 c73 -44 132 -85 133 -89 0 -12 -31 -21 -39 -10 -3 6 -70 43 -149 83
-79 39 -146 78 -149 86 -3 8 -2 21 1 29 7 20 24 12 203 -99z m649 70 c187 -49
317 -116 357 -184 l17 -31 -87 44 c-49 23 -128 55 -178 70 -179 53 -236 79
-255 116 -14 26 -9 25 146 -15z m-752 -123 c26 -10 47 -22 47 -28 -2 -11 -16
-11 -133 0 -63 6 -86 5 -123 -10 -51 -19 -78 -52 -73 -87 3 -20 8 -23 46 -20
37 3 42 1 42 -17 0 -59 -85 -81 -139 -35 -28 23 -31 32 -31 79 0 50 3 56 38
85 20 17 57 37 82 45 58 19 178 13 244 -12z m5365 3 c12 -11 23 -34 27 -53 5
-27 2 -39 -17 -59 -29 -31 -35 -30 -48 7 -14 42 -38 58 -83 59 -29 0 -38 5
-44 22 -4 15 -1 26 12 36 27 19 127 12 153 -12z m-203 -48 c13 -40 32 -67 80
-113 46 -45 65 -71 74 -103 22 -83 -13 -156 -104 -216 -50 -33 -56 -41 -56
-72 l0 -34 -70 0 c-52 0 -87 7 -131 24 -57 24 -160 98 -205 148 -12 12 -62 52
-112 88 -87 62 -106 80 -81 80 6 0 57 18 114 41 l102 41 81 -56 c108 -75 220
-120 284 -114 54 6 88 30 88 63 0 13 -16 45 -35 71 -93 131 -116 204 -66 204
14 0 24 -14 37 -52z m-1467 -16 c139 -53 203 -95 255 -170 87 -126 44 -291
-84 -322 -69 -17 -110 -6 -162 40 l-43 39 58 1 c80 0 125 23 148 74 35 77 19
134 -58 207 -67 65 -115 93 -233 133 -137 48 -152 59 -73 52 38 -4 111 -24
192 -54z m-2871 -16 c23 -12 62 -63 62 -80 0 -5 -31 -6 -69 -2 -117 12 -142
-13 -156 -154 -4 -36 -12 -78 -19 -95 -12 -28 -13 -26 -24 53 -20 139 18 230
112 273 48 22 63 23 94 5z m1483 -6 c18 -10 17 -14 -23 -62 -60 -72 -149 -134
-221 -157 -85 -25 -194 -36 -212 -21 -26 21 -17 39 23 45 162 26 244 61 335
143 37 34 70 62 73 62 3 0 14 -5 25 -10z m428 -64 l22 -24 -38 -7 c-77 -14
-110 -56 -98 -127 9 -49 73 -122 136 -154 27 -13 49 -29 49 -35 0 -12 -29 -4
-82 22 -105 53 -199 215 -168 290 24 58 137 80 179 35z m-1655 -2 c27 -10 18
-22 -56 -73 -40 -27 -134 -102 -209 -168 -167 -146 -176 -153 -164 -133 71
120 176 226 297 301 54 34 100 65 104 70 6 11 8 11 28 3z m90 -99 c28 -43 21
-70 -31 -112 -376 -301 -422 -343 -576 -532 -185 -227 -232 -311 -310 -561
-57 -182 -74 -230 -80 -230 -2 0 -2 12 1 26 2 14 -1 49 -8 78 -11 48 -10 61
15 151 50 186 75 243 197 444 147 241 204 306 508 573 76 67 244 188 261 188
4 0 14 -11 23 -25z m-1256 -80 c91 -75 111 -105 72 -105 -13 0 -20 -7 -20 -20
0 -14 9 -21 38 -26 70 -12 110 -58 62 -71 -28 -7 -25 -20 9 -38 17 -8 37 -25
45 -37 18 -25 22 -88 6 -88 -5 0 -10 4 -10 9 0 17 -64 74 -105 92 -22 10 -62
19 -90 19 -47 0 -51 -2 -102 -57 -42 -45 -54 -53 -59 -39 -3 9 -3 29 1 44 4
15 7 41 8 57 2 29 0 30 -43 33 -51 4 -70 16 -70 44 0 36 30 76 80 107 44 27
50 35 50 65 0 35 18 86 30 86 3 0 47 -34 98 -75z m2628 -34 c73 -33 104 -100
104 -225 0 -93 -11 -139 -43 -187 -25 -37 -145 -138 -164 -139 -26 0 -12 33
30 74 24 23 56 68 71 99 33 70 53 200 38 239 -23 57 -106 82 -161 48 -33 -21
-33 -21 -27 -81 8 -72 -5 -77 -62 -25 -33 31 -37 39 -36 84 1 59 23 98 67 117
46 20 134 18 183 -4z m-2204 -13 c77 -39 68 -298 -13 -390 -17 -19 -20 -20
-15 -4 13 41 26 162 21 191 -16 76 -25 94 -58 101 -26 5 -35 2 -54 -20 -13
-15 -23 -34 -23 -42 0 -21 -17 -17 -34 7 -22 32 -15 114 11 141 35 34 115 42
165 16z m1492 -4 c152 -38 192 -52 298 -106 76 -39 110 -63 157 -114 80 -85
104 -133 105 -209 l1 -60 -77 -3 -77 -3 -7 -45 c-15 -99 -81 -149 -200 -149
-61 0 -76 4 -111 28 -64 44 -97 130 -77 205 9 32 18 27 34 -20 14 -41 17 -43
67 -50 73 -11 100 2 125 58 15 34 18 57 14 86 -10 63 -31 93 -98 141 -147 104
-259 139 -453 140 -146 1 -226 -15 -398 -77 -168 -61 -232 -100 -329 -198 -60
-61 -99 -93 -129 -103 -54 -19 -52 -20 -34 15 9 17 20 30 26 30 6 0 37 26 68
58 31 33 131 109 226 173 196 133 246 152 513 199 198 35 233 36 356 4z m2897
-50 c46 -50 166 -143 210 -163 24 -10 63 -24 87 -31 37 -9 48 -20 89 -81 51
-79 107 -125 201 -166 34 -15 61 -32 59 -38 -2 -5 -22 -23 -45 -39 -57 -41
-106 -39 -180 7 -48 29 -79 64 -193 213 -80 107 -151 190 -175 206 -48 33 -80
66 -89 96 -9 29 6 28 36 -4z m-584 -152 c20 -48 3 -104 -41 -131 -50 -31 -123
-27 -268 15 -68 19 -161 40 -208 45 -46 5 -86 12 -89 14 -24 25 127 21 234 -5
108 -27 170 -23 243 14 55 28 72 49 72 92 0 27 0 27 21 8 12 -10 28 -34 36
-52z m-2473 42 c14 -14 16 -140 16 -1235 0 -1210 0 -1219 -20 -1219 -11 0 -52
9 -92 19 -40 11 -95 23 -123 26 -27 4 -82 13 -122 22 l-72 15 -5 61 c-3 34 -8
560 -12 1169 l-6 1106 23 12 c65 35 384 54 413 24z m3122 -56 c69 -75 160
-211 185 -279 12 -30 19 -75 19 -114 0 -62 -1 -65 -24 -65 -22 0 -25 -5 -30
-57 -14 -129 -26 -184 -46 -213 -43 -60 -124 -97 -148 -67 -10 12 -9 22 8 50
33 55 56 153 64 265 7 95 6 108 -20 185 -15 45 -43 104 -62 131 -24 33 -35 59
-35 80 2 61 16 146 23 146 4 0 34 -28 66 -62z m-3032 23 c16 -18 18 -104 26
-1243 4 -672 6 -1225 4 -1227 -2 -3 -17 0 -32 5 l-27 9 -6 315 c-4 173 -7 730
-8 1238 -1 978 -2 953 43 903z m3636 -72 c0 -33 -38 -66 -85 -73 -38 -6 -52
-3 -95 21 -27 15 -50 32 -50 36 0 4 28 7 63 6 88 -2 104 5 119 52 l12 41 17
-34 c10 -18 18 -40 19 -49z m-5420 -11 c11 -24 36 -110 56 -191 l36 -148 -18
-55 c-13 -41 -14 -58 -6 -66 9 -9 18 4 38 48 l26 59 20 -65 c24 -78 28 -225 9
-315 -14 -65 -89 -222 -116 -245 -23 -19 -47 -69 -41 -86 11 -29 35 -12 72 50
32 56 40 63 56 55 14 -7 18 -20 17 -47 -1 -20 4 -57 11 -82 30 -109 -37 -325
-156 -505 -83 -126 -155 -312 -153 -395 1 -35 27 -118 28 -90 1 21 62 137 110
211 26 40 55 70 82 86 22 12 42 23 44 23 1 0 5 -19 8 -41 9 -68 21 -69 82 -9
48 48 60 54 112 61 31 4 58 7 58 6 0 -1 -2 -49 -5 -105 l-5 -104 -87 -84
c-109 -105 -113 -127 -21 -99 21 7 23 -9 8 -76 -10 -50 -37 -105 -125 -254
-61 -104 -125 -207 -142 -228 -27 -35 -31 -48 -39 -143 -9 -109 -7 -124 16
-124 16 0 25 22 25 66 0 76 66 192 183 319 l55 60 13 -27 c7 -16 17 -28 22
-28 6 0 39 27 73 60 59 57 132 99 196 114 25 6 27 3 38 -47 33 -151 21 -249
-49 -397 -40 -86 -41 -111 -1 -90 30 16 34 8 10 -23 -30 -38 -82 -154 -84
-187 -1 -21 -24 -52 -94 -124 -90 -93 -104 -114 -136 -207 -29 -82 -31 -83
-151 -87 l-107 -4 7 91 c7 88 6 91 -14 91 -17 0 -21 -6 -21 -30 0 -16 -4 -30
-10 -30 -16 0 -22 42 -18 144 3 86 1 96 -14 96 -15 0 -18 -9 -18 -52 0 -62
-12 -55 -34 21 -20 67 -20 116 -2 169 8 22 12 43 9 46 -13 13 -25 4 -35 -27
l-12 -32 -12 60 c-11 53 -11 68 7 131 10 38 19 76 19 83 0 18 -19 3 -39 -30
l-18 -30 -6 44 c-6 41 6 106 31 169 8 20 8 29 -2 37 -10 8 -16 5 -24 -14 -34
-74 -43 19 -12 110 11 32 17 68 14 79 -6 20 -7 20 -25 -2 l-18 -23 -6 46 c-6
39 -3 53 26 110 28 54 32 66 20 77 -8 8 -15 9 -17 3 -10 -24 -23 -39 -30 -32
-18 18 -6 94 24 152 18 33 32 66 32 73 0 18 -21 15 -36 -5 -12 -16 -13 -14
-13 17 -1 61 18 120 58 183 22 34 37 65 35 69 -12 19 -32 5 -49 -32 -18 -41
-35 -52 -35 -25 0 33 41 307 49 329 5 12 12 49 16 82 4 32 27 145 52 249 24
105 53 242 63 305 11 64 26 132 35 153 21 50 19 305 -4 547 -10 102 -16 188
-14 193 2 4 15 7 29 7 19 0 29 -9 44 -42z m74 -20 c14 -56 -4 -62 -22 -8 -9
24 -8 30 2 30 8 0 16 -10 20 -22z m1048 11 c60 -16 88 -95 52 -147 -20 -29
-54 -29 -54 -1 0 34 -17 56 -59 72 -44 18 -69 14 -140 -22 -51 -27 -63 -21
-30 15 25 27 77 57 138 79 45 17 48 17 93 4z m2397 -30 c39 -18 106 -64 175
-122 113 -96 164 -133 170 -126 3 2 -14 31 -37 63 -28 40 -67 76 -116 111 -85
58 -96 73 -49 68 83 -10 100 -16 144 -53 52 -46 74 -51 74 -16 0 22 2 23 33
12 17 -7 43 -17 57 -23 14 -7 47 -19 73 -29 97 -35 417 -311 465 -401 8 -13
37 -56 67 -93 29 -38 63 -90 75 -116 21 -43 22 -55 16 -157 -4 -61 -10 -114
-15 -117 -4 -3 -11 -33 -15 -68 -4 -35 -10 -70 -13 -78 -8 -21 -23 -17 -23 7
0 40 -24 12 -36 -43 -16 -69 -48 -140 -75 -164 -20 -18 -20 -18 -14 11 4 17
19 71 33 120 22 77 26 109 25 225 0 120 -4 149 -32 258 -35 132 -57 180 -127
278 -61 85 -193 198 -211 180 -9 -8 19 -44 87 -116 66 -69 104 -127 127 -193
18 -52 35 -337 21 -354 -5 -7 -28 -13 -51 -15 l-42 -3 -17 -68 c-31 -116 -80
-192 -178 -272 -53 -44 -158 -105 -178 -105 -6 0 -14 16 -18 35 -3 20 -24 63
-45 96 -80 123 -94 158 -92 234 0 48 9 93 27 144 30 87 33 123 9 147 -17 16
-19 15 -43 -16 -75 -101 -112 -119 -137 -70 -71 142 -112 281 -113 385 -1 22
-8 58 -16 80 -8 22 -19 54 -25 70 -10 33 -140 175 -161 175 -7 0 15 -28 49
-62 43 -44 68 -80 82 -118 12 -30 21 -56 21 -57 0 -2 -26 17 -57 41 -67 50
-192 108 -284 132 -97 25 -216 15 -356 -30 -110 -36 -173 -73 -173 -102 0 -8
6 -14 13 -14 22 0 191 29 232 39 102 26 272 6 351 -41 l52 -32 -23 -33 c-12
-19 -21 -42 -18 -51 2 -9 29 -34 58 -55 111 -78 134 -132 145 -347 4 -85 7
-156 6 -157 0 0 -57 5 -125 13 -157 17 -222 36 -253 73 -14 16 -36 32 -49 36
-63 18 -61 19 -34 -21 55 -80 26 -109 -110 -108 -82 0 -105 5 -265 58 -161 53
-181 58 -245 54 -82 -5 -146 -31 -223 -89 -59 -45 -158 -172 -204 -262 -16
-33 -31 -57 -34 -54 -8 8 16 136 35 186 42 112 161 246 242 272 22 8 40 18 39
23 -1 5 4 12 10 16 7 4 10 13 6 18 -12 20 -85 -16 -169 -83 -94 -76 -103 -72
-61 27 25 58 35 69 103 116 60 41 99 58 186 83 61 18 137 37 170 43 42 8 61
16 63 28 3 13 -18 10 -131 -23 -74 -21 -172 -55 -218 -74 -45 -20 -86 -34 -90
-33 -18 6 29 79 68 107 41 29 70 67 60 78 -19 19 136 171 226 222 31 18 57 37
57 42 0 5 5 9 11 9 7 0 31 18 55 39 54 50 134 91 249 126 116 36 222 42 339
21 48 -10 90 -15 93 -12 11 11 -102 35 -198 42 -115 8 -111 15 18 35 69 10 90
10 159 -6 43 -9 124 -37 179 -61 121 -53 92 -24 -43 43 -60 29 -89 49 -81 53
7 5 55 6 108 3 76 -5 109 -12 160 -34z m-3354 -145 c15 -58 21 -164 9 -164 -4
0 -12 8 -19 17 -11 15 -15 15 -29 4 -14 -12 -16 -10 -17 10 -2 60 3 206 8 223
5 18 7 17 19 -6 8 -15 21 -53 29 -84z m4139 -42 c47 -32 72 -51 157 -116 81
-61 122 -79 166 -71 41 7 68 52 60 102 -7 44 6 42 54 -6 31 -31 39 -46 39 -75
0 -81 -52 -126 -145 -126 -69 0 -119 31 -235 145 -58 56 -130 125 -160 154
l-55 52 40 -16 c22 -9 58 -28 79 -43z m-3279 -3 c124 -30 166 -72 106 -107
-17 -9 -31 -20 -31 -23 0 -3 18 -24 39 -46 70 -71 76 -154 17 -241 -45 -67
-96 -94 -170 -89 -47 3 -79 14 -168 60 l-109 57 -25 -25 c-13 -13 -24 -33 -24
-45 0 -24 -17 -26 -42 -3 -45 41 -1 123 66 123 20 0 71 -17 118 -39 46 -22 90
-40 98 -41 74 -10 132 25 151 90 10 33 9 43 -5 65 -9 14 -13 25 -9 25 13 0
-62 52 -102 71 -100 47 -281 4 -391 -93 -50 -44 -139 -175 -173 -255 -36 -84
-60 -97 -51 -26 8 62 128 290 167 319 16 12 40 38 53 58 32 46 228 176 267
176 16 0 35 5 43 10 17 12 62 6 175 -21z m4116 -106 c150 -141 246 -508 250
-964 2 -131 -2 -191 -21 -299 -13 -74 -26 -138 -29 -142 -4 -4 -39 5 -78 19
l-72 27 6 51 c2 27 11 70 18 95 30 99 36 153 42 330 5 206 0 260 -50 500 -24
111 -50 202 -81 278 -42 104 -55 152 -41 152 3 0 28 -21 56 -47z m170 -78 c38
-43 67 -51 107 -31 41 21 42 21 42 -18 0 -99 -110 -106 -166 -10 -21 36 -33
94 -19 94 3 0 19 -16 36 -35z m-5440 -31 c52 -47 59 -224 16 -389 -14 -55 -47
-212 -72 -350 -54 -293 -55 -295 -66 -295 -22 0 -6 145 42 383 59 293 75 476
45 522 -12 18 -25 25 -49 25 -60 0 -71 -17 -77 -121 -4 -82 -7 -90 -19 -75 -9
10 -17 52 -21 99 -7 97 7 136 74 193 34 30 46 35 75 30 18 -3 42 -13 52 -22z
m5229 -66 c41 -92 77 -219 96 -337 18 -118 15 -354 -6 -409 -16 -43 -194 -202
-226 -202 -23 0 -23 2 -21 82 l2 82 -35 6 c-64 11 -78 26 -101 100 -28 92 -25
214 7 257 40 56 169 98 209 69 16 -12 20 -25 18 -71 -1 -32 -4 -60 -7 -63 -3
-3 -17 7 -30 21 -35 37 -102 38 -136 2 -22 -24 -23 -29 -13 -68 29 -107 56
-130 141 -117 139 22 184 255 98 516 -32 97 -47 194 -30 194 3 0 18 -28 34
-62z m-3085 22 c28 -11 55 -62 55 -105 0 -15 -29 -92 -64 -173 -35 -81 -73
-172 -84 -202 l-21 -55 0 48 c-1 48 21 145 39 179 6 10 10 28 10 41 0 12 6 47
14 76 24 91 -9 136 -75 101 -33 -18 -23 28 13 58 50 43 70 48 113 32z m1488
-212 c6 -8 7 -23 3 -33 -9 -24 -36 -1 -36 32 0 27 17 27 33 1z m-2975 -19 c2
-13 -13 -22 -57 -37 -68 -23 -77 -15 -34 30 31 33 85 36 91 7z m171 -70 c63
-13 109 -44 132 -88 10 -19 17 -36 15 -38 -2 -2 -26 12 -54 31 -79 53 -132 70
-196 62 -70 -9 -195 -69 -271 -131 -32 -26 -55 -40 -52 -31 4 10 7 23 7 30 0
24 85 97 146 127 101 48 178 59 273 38z m2859 -21 c17 -17 15 -57 -3 -64 -26
-10 -65 5 -65 25 0 47 38 69 68 39z m-2531 -34 c20 -20 24 -31 19 -56 -9 -44
-24 -58 -60 -58 -38 0 -61 16 -71 48 -5 17 1 30 28 57 42 42 50 43 84 9z
m-507 -53 c0 -23 -24 -73 -40 -81 -21 -11 -40 5 -40 36 0 24 15 39 45 47 32 8
35 7 35 -2z m270 -51 c0 -24 -15 -40 -36 -40 -21 0 -24 5 -24 34 0 34 0 35 30
25 17 -6 30 -15 30 -19z m2745 6 c14 -10 17 -21 12 -51 -8 -47 -19 -59 -46
-50 -17 5 -21 14 -21 54 0 63 15 77 55 47z m165 -55 c0 -54 -12 -70 -36 -50
-11 9 -14 22 -9 48 8 44 12 51 31 51 10 0 14 -13 14 -49z m1046 -160 l7 -69
-42 -44 c-46 -51 -54 -81 -18 -76 14 2 23 11 25 25 4 29 32 39 32 12 0 -33
-18 -61 -73 -112 -50 -47 -51 -49 -22 -42 17 3 38 8 48 11 23 7 22 -17 -3 -66
-47 -91 -126 -153 -299 -231 -58 -27 -107 -55 -109 -64 -5 -24 22 -18 124 25
77 32 110 52 172 109 83 75 98 75 68 -3 -11 -29 -29 -49 -60 -69 -39 -25 -45
-34 -59 -89 -14 -55 -14 -63 0 -73 13 -10 6 -22 -44 -86 -81 -101 -157 -168
-239 -211 -117 -61 -199 -69 -318 -31 -60 19 -48 28 54 38 50 4 102 18 155 40
44 18 89 36 99 39 39 13 6 17 -50 7 -90 -17 -211 -13 -279 8 -82 26 -149 66
-163 96 -13 29 -1 39 63 50 72 11 85 15 85 25 0 5 -34 47 -75 92 -56 62 -82
102 -105 158 -18 41 -43 95 -56 120 -23 40 -24 46 -9 56 9 7 28 10 43 9 15 -2
68 -9 117 -15 63 -8 103 -19 133 -36 56 -33 70 -27 74 33 l3 47 160 1 c157 0
161 1 241 33 65 26 92 44 132 86 86 90 131 205 133 335 l1 76 24 -73 c13 -40
27 -104 30 -141z m-4328 177 c2 -12 -14 -29 -51 -52 -31 -20 -57 -41 -60 -48
-4 -8 -6 -7 -6 4 -1 23 50 106 69 111 26 8 45 2 48 -15z m522 -8 c22 -22 27
-79 8 -98 -15 -15 -65 -15 -106 -1 -31 10 -31 12 -25 57 3 26 11 50 17 54 23
16 86 8 106 -12z m-274 -14 c19 -14 19 -16 -4 -78 -13 -35 -26 -72 -29 -83 -4
-20 -4 -20 11 -1 14 17 20 18 53 8 61 -18 72 -32 85 -100 11 -59 10 -64 -10
-85 -16 -15 -26 -19 -35 -12 -92 69 -110 76 -183 73 -69 -3 -73 -5 -148 -61
-114 -86 -176 -182 -213 -334 -16 -66 -33 -96 -33 -58 0 39 -107 -4 -181 -73
-102 -94 -92 -58 51 193 72 125 146 258 165 294 19 36 66 102 103 146 79 92
136 128 257 161 98 28 88 27 111 10z m1508 -114 c-92 -188 -126 -294 -132
-419 -3 -69 -1 -103 6 -103 23 0 40 31 47 86 7 58 40 155 76 227 29 55 209
237 236 237 21 0 35 -25 49 -82 3 -16 10 -28 16 -28 5 0 6 -4 3 -10 -15 -24
16 -7 34 19 32 45 96 54 176 24 22 -8 67 -19 100 -25 33 -6 73 -17 89 -25 27
-14 28 -18 23 -63 -10 -79 -84 -212 -181 -320 -54 -61 -80 -97 -73 -102 6 -4
28 -10 49 -13 59 -10 67 -66 22 -165 -36 -78 -92 -147 -186 -226 -45 -38 -97
-84 -116 -103 -74 -74 -121 -235 -108 -374 6 -66 6 -67 -14 -55 -24 15 -22 9
-24 123 -1 73 -4 90 -16 90 -12 0 -16 -16 -18 -69 -3 -67 -3 -68 -22 -51 -11
10 -23 33 -26 52 -5 24 -9 31 -15 21 -7 -11 -11 -10 -25 3 -25 26 -22 186 6
277 17 56 19 75 10 92 -7 13 -9 38 -5 63 12 69 72 227 111 290 35 57 38 75 11
64 -25 -9 -109 -165 -149 -275 -37 -104 -38 -108 -38 -249 0 -81 -4 -143 -9
-143 -5 0 -19 12 -31 28 -18 22 -21 36 -16 72 3 25 8 80 12 124 7 73 6 78 -12
74 -16 -3 -20 -15 -24 -73 l-5 -70 -24 39 c-23 36 -24 42 -13 105 6 36 14 78
18 94 11 47 -14 30 -28 -19 -7 -26 -17 -45 -23 -43 -5 2 -10 9 -10 14 -1 6 -9
42 -19 80 -9 39 -24 96 -32 127 -31 125 -11 324 46 462 34 81 110 216 122 216
4 0 8 -9 8 -21 0 -14 5 -19 17 -17 20 4 39 37 53 94 8 34 16 44 48 57 73 30
74 26 6 -111z m-1108 94 c15 -12 17 -19 8 -33 -11 -18 -62 -48 -69 -41 -2 2
-1 22 2 46 6 46 23 54 59 28z m-288 -38 c29 -29 5 -62 -37 -51 -15 4 -21 13
-21 34 0 24 4 29 23 29 13 0 28 -5 35 -12z m2326 -20 c18 -29 -19 -60 -68 -56
-40 3 -41 4 -44 41 l-3 38 52 -3 c35 -2 55 -8 63 -20z m534 3 c19 -12 33 -81
21 -103 -13 -25 -35 -23 -64 7 -52 51 -15 133 43 96z m-288 -26 c14 -17 5 -51
-17 -59 -34 -13 -81 43 -56 67 12 12 60 7 73 -8z m-433 -16 c26 -22 15 -39
-27 -39 -29 0 -42 5 -50 20 -6 11 -8 25 -4 31 7 13 60 5 81 -12z m591 -2 c22
-18 10 -61 -20 -71 -44 -15 -78 6 -78 48 0 19 6 37 13 39 16 7 69 -3 85 -16z
m954 -1 c7 -10 1 -61 -9 -78 -7 -13 -50 -9 -61 5 -22 28 -23 56 -2 77 22 22
57 20 72 -4z m-1244 -8 c17 -17 15 -83 -3 -98 -30 -25 -81 13 -71 54 12 47 49
69 74 44z m-2359 -21 c13 -16 5 -27 -21 -27 -11 0 -18 7 -18 20 0 23 22 27 39
7z m113 -11 c16 -36 4 -58 -29 -54 -29 3 -41 32 -29 64 9 23 45 16 58 -10z
m2119 -36 c14 -8 19 -21 19 -51 0 -33 -4 -41 -25 -51 -18 -8 -35 -9 -53 -2
-22 8 -28 16 -30 49 -5 56 37 82 89 55z m-2022 -231 c31 -25 51 -24 96 6 20
15 40 24 43 21 10 -11 -21 -67 -51 -92 -42 -35 -110 -30 -143 12 -43 53 -45
91 -10 195 l31 94 5 -108 c5 -99 7 -110 29 -128z m3282 211 c25 -14 25 -61 0
-84 -47 -42 -103 15 -67 68 18 28 36 32 67 16z m-594 -32 c40 -38 27 -88 -23
-88 -22 0 -54 37 -54 63 0 48 39 61 77 25z m-389 -20 c3 -22 -2 -30 -21 -37
-39 -15 -67 -3 -67 28 0 37 8 43 50 39 30 -3 35 -7 38 -30z m120 26 c33 -9 27
-49 -8 -49 -20 0 -26 6 -28 28 -4 29 -1 30 36 21z m-254 -99 c25 -51 45 -59
77 -29 21 20 46 28 120 40 188 30 172 29 166 8 -4 -10 -11 -40 -17 -65 -15
-60 -89 -153 -140 -175 -22 -10 -40 -21 -40 -24 0 -3 15 -10 33 -15 40 -12 40
-28 2 -75 -28 -35 -39 -40 -155 -71 -196 -51 -250 -81 -292 -162 -17 -35 -20
-54 -16 -131 l4 -89 -37 41 c-20 23 -39 50 -42 61 -2 10 6 51 19 92 27 86 26
79 17 79 -5 0 -21 -21 -38 -48 l-30 -47 -3 37 c-4 47 25 113 72 165 54 60 43
61 -24 3 -34 -29 -62 -51 -65 -49 -7 8 26 144 36 148 5 1 21 21 35 43 19 30
23 43 14 48 -18 11 47 108 101 152 67 54 140 98 165 98 15 0 27 -11 38 -35z
m-241 4 c8 -29 -2 -49 -23 -49 -21 0 -34 39 -18 57 16 19 35 16 41 -8z m1827
-53 c0 -12 -12 -68 -26 -126 -21 -86 -25 -122 -22 -202 5 -121 19 -143 87
-135 28 3 50 12 58 23 8 11 20 28 28 39 12 17 16 18 25 5 16 -22 3 -89 -25
-132 -68 -103 -228 -103 -264 0 -14 39 -13 48 37 234 28 106 54 216 57 243 4
28 9 63 12 79 5 28 6 29 19 11 8 -10 14 -28 14 -39z m-580 24 c16 -30 -4 -60
-41 -60 -35 0 -46 21 -31 56 14 30 57 33 72 4z m146 -1 c8 -14 -5 -46 -20 -52
-42 -16 -86 34 -52 58 17 13 63 9 72 -6z m-555 -20 c11 -11 18 -27 15 -36 -3
-8 -6 -19 -6 -24 0 -13 -54 -11 -68 3 -13 13 -16 60 -5 71 13 13 43 7 64 -14z
m-133 -27 c5 -30 -14 -52 -45 -52 -28 0 -38 20 -29 56 6 21 11 25 39 22 25 -2
33 -8 35 -26z m-778 -23 c9 -15 8 -24 -1 -35 -27 -33 -59 -7 -38 32 15 29 25
30 39 3z m-2185 -5 c128 -33 268 -138 322 -241 45 -87 85 -198 81 -230 -2 -20
-9 -28 -23 -28 -21 0 -23 3 -96 160 -77 165 -204 264 -349 273 l-76 4 -42 -55
c-52 -70 -53 -95 -7 -182 34 -63 35 -68 20 -91 -15 -23 -17 -23 -40 -8 -18 11
-31 39 -50 99 -28 94 -29 108 -14 170 16 65 63 114 124 130 66 18 80 18 150
-1z m2882 -134 c23 -47 -28 -86 -77 -60 -17 9 -20 17 -15 38 4 15 11 33 17 40
18 21 61 10 75 -18z m-797 -76 c0 -28 -4 -35 -27 -40 -19 -5 -30 -2 -40 11
-20 28 -16 43 14 59 37 19 53 10 53 -30z m720 -45 c11 -26 11 -33 -2 -46 -19
-18 -58 -9 -58 13 0 17 29 64 40 64 4 0 13 -14 20 -31z m133 -6 c8 -10 17 -31
19 -48 3 -27 0 -30 -29 -33 -27 -3 -35 1 -45 22 -9 21 -8 32 2 51 16 29 31 32
53 8z m1583 -62 c43 -20 75 -56 99 -115 18 -43 14 -44 -34 -7 -58 46 -119 72
-185 79 l-61 7 27 28 c33 33 92 36 154 8z m-1806 -42 c0 -29 -43 -79 -67 -79
-7 0 -20 11 -28 24 -20 31 -8 58 38 86 37 23 57 12 57 -31z m-2476 15 c9 -8
16 -26 16 -40 0 -22 -4 -24 -49 -24 -131 0 -316 -66 -392 -139 -51 -50 -67
-89 -53 -130 7 -20 22 -30 69 -45 l60 -19 125 32 c168 44 213 36 196 -34 -7
-26 -8 -27 -59 -21 -41 5 -77 0 -167 -24 -85 -23 -126 -29 -158 -24 -50 7
-102 40 -119 74 -14 27 -17 89 -7 139 8 41 93 134 136 151 18 7 56 28 84 47
40 27 73 38 150 53 125 23 149 24 168 4z m3646 -1 c0 -5 -9 -19 -20 -33 l-20
-25 0 27 c0 23 10 35 33 37 4 1 7 -2 7 -6z m-3401 -27 c19 -20 21 -28 11 -46
-7 -14 -19 -20 -33 -18 -18 2 -23 11 -25 46 -4 49 12 55 47 18z m2067 16 c19
-12 27 -52 14 -67 -14 -17 -56 -20 -65 -4 -4 6 -4 26 -1 45 7 34 26 44 52 26z
m318 -5 c21 -15 24 -70 6 -92 -28 -34 -90 -3 -90 45 0 18 8 34 22 44 27 19 39
20 62 3z m150 -37 c35 -13 36 -56 2 -72 -37 -16 -56 -4 -56 36 0 19 6 37 13
39 6 3 13 6 14 6 1 1 13 -3 27 -9z m-584 -29 c15 -29 13 -33 -24 -73 -32 -34
-35 -35 -50 -19 -20 23 -21 75 0 95 21 22 61 20 74 -3z m2032 9 c53 -15 90
-50 128 -121 43 -80 51 -171 25 -285 -24 -106 -56 -179 -141 -314 -114 -182
-138 -283 -89 -380 14 -28 34 -52 47 -56 38 -12 120 -8 130 7 16 24 2 121 -31
216 -38 111 -40 161 -7 200 20 23 32 28 71 28 40 0 51 -5 76 -33 44 -49 39
-56 -35 -48 -53 5 -65 4 -70 -10 -12 -32 -5 -61 25 -110 78 -120 88 -193 41
-279 -53 -96 -151 -134 -273 -105 -103 25 -168 133 -156 259 4 39 50 206 57
206 0 0 -19 0 -42 0 -59 0 -59 18 -5 135 35 75 64 117 137 200 125 142 166
233 124 274 -8 9 -25 16 -37 16 -45 0 -65 -27 -98 -133 -39 -128 -69 -187
-119 -237 -36 -36 -126 -90 -150 -90 -5 0 -10 16 -10 36 0 32 -2 35 -22 28
-13 -3 -35 -13 -50 -20 -32 -16 -98 -18 -149 -4 -71 20 -119 99 -119 196 0
122 36 174 122 174 l50 0 -35 -48 c-44 -60 -52 -88 -37 -142 15 -55 51 -87
105 -96 59 -8 108 10 159 60 38 36 49 59 100 206 60 174 86 218 156 259 39 23
67 26 122 11z m-1772 -77 c78 -21 101 -35 148 -90 113 -130 164 -165 312 -214
82 -27 121 -34 181 -34 80 0 87 -5 39 -30 -73 -38 -185 -36 -306 5 -38 13 -54
16 -52 7 6 -20 91 -57 147 -64 67 -8 61 -25 -15 -40 -43 -9 -73 -10 -109 -2
-98 20 -291 81 -344 110 -61 32 -73 35 -65 15 6 -17 167 -97 244 -121 44 -15
51 -20 35 -26 -43 -16 -99 -10 -212 26 -17 6 -23 3 -23 -9 0 -9 -1 -16 -3 -16
-65 0 -457 137 -457 160 0 13 47 50 79 61 36 13 37 7 -3 114 -17 45 -24 79
-20 97 7 33 5 33 46 9 18 -11 62 -27 98 -36 36 -9 82 -21 103 -26 20 -5 53
-24 73 -41 50 -44 63 -26 30 40 -16 31 -26 68 -26 93 0 38 2 41 23 35 12 -4
47 -14 77 -23z m-2593 -38 c139 -42 181 -43 290 -8 64 21 86 24 95 15 9 -9 9
-18 0 -36 -15 -33 -85 -54 -207 -62 -79 -6 -103 -4 -165 15 -118 36 -180 67
-180 90 0 21 17 32 38 25 8 -2 66 -20 129 -39z m2423 20 c0 -18 -5 -25 -19
-25 -11 0 -23 5 -26 10 -11 18 3 40 25 40 15 0 20 -7 20 -25z m401 15 c18 0 9
-49 -11 -60 -27 -15 -62 4 -53 28 10 29 26 43 40 37 8 -3 19 -5 24 -5z m63
-106 c20 -8 21 -53 1 -60 -21 -9 -45 14 -45 42 0 24 14 30 44 18z m-2541 -51
c9 -15 -23 -153 -53 -230 -16 -44 -61 -125 -100 -182 -38 -57 -89 -138 -112
-180 -22 -42 -43 -78 -45 -80 -7 -9 -53 20 -53 34 0 8 15 36 34 62 46 66 165
262 198 325 15 29 36 91 47 137 11 46 28 92 37 102 18 20 39 25 47 12z m1614
-88 c59 -17 97 -56 113 -113 11 -41 14 -135 4 -145 -4 -4 -22 7 -40 23 -65 56
-142 59 -175 6 -22 -36 -23 -59 -7 -124 9 -40 26 -62 110 -144 116 -115 178
-160 313 -228 170 -85 360 -117 627 -106 359 15 696 135 952 340 110 89 151
115 162 103 8 -8 -43 -136 -77 -192 -46 -77 -78 -105 -204 -180 -177 -106
-321 -169 -620 -271 -232 -80 -567 -113 -810 -80 -65 9 -151 16 -190 16 -180
1 -213 46 -78 107 73 33 98 35 250 18 64 -7 72 -5 81 11 7 13 6 30 -5 55 -12
32 -25 42 -86 69 l-72 32 -110 -16 -110 -16 -55 27 c-35 17 -85 57 -140 112
-90 91 -136 166 -181 293 -22 63 -23 70 -9 110 12 35 20 44 43 46 25 3 27 7
27 45 1 117 53 188 150 208 57 11 83 10 137 -6z m-836 -65 c5 0 9 -28 9 -63 0
-61 2 -66 50 -128 27 -35 50 -67 50 -72 0 -16 -57 7 -106 43 -50 37 -84 89
-84 127 0 10 9 38 20 62 15 31 24 42 36 37 9 -3 20 -6 25 -6z m-591 -50 c197
-31 406 -109 600 -223 84 -49 226 -145 239 -161 8 -10 35 -32 60 -49 136 -92
193 -139 180 -148 -43 -27 -124 13 -275 137 -264 216 -569 350 -879 385 -55 6
-101 12 -103 14 -2 1 0 14 4 29 6 24 10 26 58 26 28 0 80 -5 116 -10z m-340
-19 c0 -20 -43 -61 -64 -61 -21 0 -131 -57 -165 -86 -99 -83 -110 -278 -19
-334 44 -27 102 -25 186 5 84 30 134 32 178 5 89 -56 118 -273 55 -415 -35
-80 -68 -113 -155 -155 -75 -37 -84 -39 -120 -29 -52 14 -135 99 -172 175 -54
111 -42 311 18 302 30 -4 34 -35 13 -97 -15 -46 -15 -54 0 -105 43 -146 151
-228 258 -196 81 24 127 110 127 236 0 85 -20 124 -84 162 -50 30 -53 30 -153
25 -90 -5 -106 -3 -146 16 -69 34 -127 134 -127 221 0 50 33 143 69 192 38 51
80 83 166 123 82 39 135 45 135 16z m1370 -151 c0 -103 2 -110 41 -201 22 -52
50 -109 61 -127 11 -18 18 -35 16 -37 -10 -10 -118 114 -145 165 -36 71 -44
194 -18 285 16 54 19 57 31 40 10 -13 14 -51 14 -125z m1965 66 c18 -13 18
-16 -18 -55 -45 -49 -49 -90 -13 -126 40 -40 89 -43 176 -11 212 79 247 64 62
-26 -134 -66 -253 -65 -317 2 -25 26 -30 41 -33 95 -3 49 0 71 12 91 28 42 94
57 131 30z m-2902 -35 c95 -22 190 -46 212 -54 l40 -14 5 -499 5 -499 28 -57
c38 -76 102 -131 217 -186 l95 -45 398 7 399 7 -21 -30 c-31 -42 -26 -87 14
-151 19 -30 35 -58 35 -62 0 -12 -2083 -10 -2115 2 -17 7 -25 16 -23 28 4 19
92 71 122 72 24 0 215 101 277 146 25 18 58 52 73 74 54 82 56 104 56 727 0
315 2 573 5 573 3 0 83 -18 178 -39z m-1253 -47 c0 -20 -48 -64 -70 -64 -10 0
21 70 43 98 13 16 27 -1 27 -34z m3808 7 c53 -27 93 -73 78 -89 -3 -3 -36 6
-73 20 -79 29 -119 24 -152 -18 -33 -41 -29 -120 7 -170 41 -56 47 -59 148
-83 107 -25 154 -26 245 -7 69 15 250 100 309 146 33 25 127 80 137 80 3 0
-19 -21 -47 -47 -139 -128 -284 -213 -435 -259 -74 -22 -111 -27 -210 -28
-104 -1 -128 2 -178 22 -74 30 -150 105 -188 186 -40 83 -39 87 18 70 25 -8
50 -14 54 -14 5 0 8 29 7 65 -1 90 25 126 107 146 64 15 115 9 173 -20z m-300
1 c-10 -8 -105 -27 -211 -43 -199 -31 -251 -43 -278 -62 -75 -57 -63 -165 23
-204 73 -34 91 -35 142 -8 39 21 48 22 52 10 9 -23 -44 -85 -90 -106 -75 -34
-202 -16 -258 36 -118 110 -70 311 92 378 46 20 556 18 528 -1z m-1923 -74
l25 -11 1 -216 c1 -119 0 -277 -2 -351 -8 -283 -5 -338 25 -418 15 -41 25 -76
23 -79 -3 -2 -14 0 -25 6 -26 14 -59 92 -71 172 -10 62 -16 909 -6 909 2 0 16
-5 30 -12z m256 -190 c19 -6 65 -33 103 -60 l69 -48 -37 0 c-20 0 -53 7 -74
16 -43 18 -102 20 -133 4 -19 -11 -20 -17 -14 -66 8 -63 -5 -70 -53 -29 -53
45 -53 157 1 183 30 14 97 15 138 0z m2855 -3 c13 -32 -129 -197 -296 -345
-148 -131 -166 -151 -217 -238 -31 -52 -67 -124 -81 -161 -14 -36 -29 -72 -35
-78 -11 -15 -43 -17 -52 -3 -16 27 65 212 150 340 41 62 69 90 277 280 52 47
109 107 127 133 55 78 113 111 127 72z m-2340 -212 c40 -16 78 -34 85 -40 8
-6 26 -14 41 -18 28 -7 55 -31 45 -41 -2 -3 -48 -34 -100 -68 -94 -62 -97 -63
-183 -70 -96 -8 -136 -21 -189 -62 -72 -55 -110 -163 -87 -247 9 -33 8 -37 -8
-37 -57 0 -146 66 -175 130 -17 37 -17 48 -7 98 19 93 61 140 144 166 32 10 9
36 -32 36 -23 0 -47 8 -61 20 l-24 20 40 36 c51 46 150 94 218 105 93 14 214
3 293 -28z m524 -96 c24 -8 35 -18 35 -32 0 -18 -8 -20 -110 -25 -106 -5 -113
-7 -197 -50 -55 -29 -86 -50 -83 -58 3 -7 -16 -38 -42 -70 -83 -102 -111 -205
-68 -252 16 -18 27 -21 60 -17 41 6 85 43 85 73 0 18 9 18 32 -3 23 -21 24
-95 1 -134 -19 -32 -77 -59 -126 -59 -35 0 -73 21 -97 54 -8 12 -25 31 -37 42
-16 15 -23 33 -23 59 0 38 38 138 72 187 28 41 21 45 -17 8 -67 -65 -101 -138
-131 -280 -16 -74 -32 -130 -39 -130 -6 0 -20 6 -30 14 -18 13 -19 18 -7 73 7
32 17 84 23 117 5 32 17 75 26 95 9 20 17 39 17 42 3 17 148 176 187 205 48
35 207 113 269 132 75 23 149 26 200 9z m1346 -42 c-78 -70 -119 -92 -317
-166 -200 -75 -249 -99 -283 -139 -54 -65 -27 -150 57 -181 41 -15 44 -21 21
-43 -22 -22 -58 -30 -111 -22 -90 12 -133 59 -133 146 0 60 15 92 67 142 39
37 71 52 203 93 87 26 448 176 494 204 60 37 60 20 2 -34z m342 -88 c5 -44
-213 -504 -278 -587 -11 -14 -29 -61 -39 -105 -38 -151 -54 -159 -278 -145
-114 7 -237 7 -382 0 -117 -5 -218 -7 -222 -4 -5 3 -9 59 -9 125 l0 119 53 0
c119 0 329 35 456 77 172 55 362 174 446 279 58 73 107 141 134 188 51 88 50
87 84 84 27 -2 33 -8 35 -31z m48 -39 c11 -21 14 -45 11 -72 -3 -25 -80 -196
-190 -426 l-185 -385 -238 -6 c-132 -4 -344 -7 -473 -8 -218 -1 -233 0 -226
17 4 9 10 26 13 36 5 19 18 19 441 12 l436 -7 27 48 c14 26 36 73 48 103 12
30 59 131 105 225 87 177 174 380 196 453 7 23 14 42 15 42 2 0 11 -14 20 -32z
m235 -30 c22 -82 34 -103 93 -162 l59 -59 23 26 c12 14 24 31 26 37 4 13 73
39 106 40 27 0 27 -8 2 -90 -14 -45 -20 -96 -21 -165 0 -102 -9 -149 -23 -127
-6 11 -46 18 -46 8 0 -2 9 -23 20 -47 23 -52 26 -107 6 -135 -14 -18 -15 -18
-21 9 -4 15 -14 27 -22 27 -13 0 -14 -11 -9 -62 5 -50 3 -70 -11 -98 -10 -19
-22 -34 -28 -32 -6 1 -10 38 -10 85 -1 143 -33 247 -77 247 -15 0 -14 -4 3
-49 10 -27 23 -87 29 -133 13 -107 1 -182 -36 -218 l-26 -25 6 63 c6 55 5 62
-11 62 -13 0 -23 -16 -36 -62 -20 -67 -53 -122 -68 -113 -5 4 -1 17 8 31 12
20 13 28 4 37 -10 9 -21 2 -51 -33 -22 -25 -40 -48 -40 -51 0 -4 -12 -9 -27
-12 -16 -3 -37 -9 -48 -13 -11 -4 3 14 32 39 28 26 61 67 72 90 36 75 23 177
-32 235 -35 38 -128 81 -161 75 -28 -6 -29 -5 -22 23 25 101 76 154 150 154
l38 0 -6 73 c-6 61 -3 86 18 160 15 48 26 94 26 102 0 16 77 105 91 105 4 0
13 -19 20 -42z m-4547 -133 c37 -114 47 -304 21 -400 -14 -50 -24 -70 -42 -78
-17 -7 -23 -18 -23 -42 0 -41 -5 -45 -42 -35 -28 9 -30 8 -24 -15 7 -29 -22
-42 -53 -24 -15 10 -23 10 -34 1 -11 -10 -22 -9 -51 3 -20 8 -36 20 -36 25 0
5 -19 26 -41 47 -51 47 -92 106 -109 157 -15 46 -8 53 52 50 24 -2 53 -3 64
-3 12 -1 38 -14 59 -31 46 -37 79 -38 101 -5 22 34 5 103 -48 191 l-40 66 37
53 c20 29 61 77 91 106 54 50 56 51 74 33 10 -11 29 -55 44 -99z m2567 -47
c52 -57 106 -121 119 -142 l23 -39 13 44 c15 49 40 81 83 103 35 19 41 13 34
-28 -6 -39 14 -91 54 -137 48 -54 103 -176 103 -226 0 -32 -4 -43 -15 -43 -13
0 -15 -13 -13 -67 l3 -68 -29 3 -29 4 5 -51 c4 -39 1 -54 -12 -66 -16 -15 -18
-11 -22 53 -6 80 -47 182 -74 182 -12 0 -14 -5 -9 -17 35 -81 47 -131 41 -181
-6 -54 -26 -102 -54 -134 -25 -29 -30 -21 -19 27 6 25 7 48 4 51 -12 12 -35
-16 -41 -50 -8 -41 -48 -86 -76 -86 -26 0 -25 6 5 42 29 34 32 66 9 111 -23
45 -63 75 -168 127 -71 35 -97 54 -119 86 -28 40 -28 42 -12 73 9 18 32 39 53
49 66 30 68 37 28 84 -20 23 -38 57 -42 77 -3 20 -12 57 -21 83 -16 51 -12 91
14 143 20 40 57 95 64 95 3 0 48 -46 100 -102z m-647 84 c2 -4 -9 -30 -26 -57
-17 -28 -40 -74 -50 -104 -44 -125 -79 -164 -162 -180 -114 -21 -203 40 -174
118 8 21 8 21 43 -14 29 -28 43 -35 76 -35 77 0 134 50 195 173 20 40 43 80
52 90 16 18 37 22 46 9z m-1459 -148 c88 -41 108 -179 37 -248 l-29 -27 -6 30
c-5 25 -13 32 -49 41 -24 6 -62 19 -86 30 -57 26 -88 25 -107 -3 -24 -38 -34
-115 -23 -180 9 -51 8 -60 -8 -78 -11 -12 -21 -16 -27 -10 -5 5 -12 59 -15
119 -7 152 6 198 72 266 29 29 61 58 71 64 29 17 132 14 170 -4z m-700 -114
c19 -7 26 -16 23 -33 -3 -20 -8 -22 -48 -19 -25 1 -80 8 -122 14 -90 13 -131
2 -213 -60 -74 -56 -98 -96 -91 -154 7 -67 18 -82 96 -139 39 -28 70 -54 70
-59 0 -10 -29 -40 -38 -40 -4 0 -24 5 -44 10 -85 24 -160 172 -144 285 13 83
127 181 240 205 50 11 234 4 271 -10z m-157 -326 c16 -11 22 -25 22 -50 0 -56
-15 -74 -60 -74 -29 0 -42 5 -50 19 -16 31 -12 79 10 101 24 24 48 25 78 4z
m470 -19 c4 -27 -34 -51 -54 -34 -17 14 -18 31 -2 47 18 18 53 10 56 -13z
m-90 -92 c4 -24 -30 -48 -54 -39 -14 6 -19 47 -7 60 16 15 58 1 61 -21z m181
-82 c149 -145 231 -179 448 -190 118 -5 145 -10 162 -25 27 -25 27 -29 -10
-70 -33 -38 -64 -47 -174 -48 -74 -2 -299 46 -373 79 -31 13 -98 52 -149 85
-93 60 -143 107 -143 134 0 7 27 27 60 44 41 20 65 40 76 62 l17 33 15 -25 c9
-14 41 -49 71 -79z m-409 54 c-7 -8 -16 -15 -21 -15 -5 0 -9 7 -9 15 0 9 9 15
21 15 18 0 19 -2 9 -15z m118 -17 c3 -22 -1 -28 -16 -28 -25 0 -46 25 -38 46
10 27 51 13 54 -18z m2677 2 l40 -25 -1129 -7 -1128 -8 -44 31 c-24 16 -44 32
-44 34 0 3 510 4 1133 2 l1132 -2 40 -25z m-2877 -32 c-2 -15 -11 -24 -25 -26
-19 -3 -23 1 -23 22 0 21 5 26 26 26 21 0 25 -4 22 -22z m-110 -10 c16 -16 15
-53 -2 -67 -23 -19 -68 -9 -77 17 -15 41 48 81 79 50z m4822 -27 c0 -47 -133
-116 -225 -116 -50 0 -75 7 -147 42 -69 33 -87 45 -82 58 5 11 14 15 28 11 11
-3 74 -12 140 -21 l118 -15 76 34 c79 36 92 37 92 7z m-4996 -3 c30 -42 -2
-98 -55 -98 -47 0 -79 76 -47 108 21 21 85 15 102 -10z m2767 -29 c45 -49 126
-73 244 -73 87 0 109 3 168 28 38 15 70 26 72 24 10 -10 -47 -77 -78 -91 -55
-26 -210 -33 -282 -12 -119 35 -232 106 -220 138 12 29 63 22 96 -14z m-805 0
c22 -7 53 -37 102 -97 101 -125 104 -127 170 -126 106 2 164 55 185 171 11 59
16 68 36 71 23 4 23 2 19 -60 -4 -58 -9 -68 -63 -140 -67 -90 -92 -102 -195
-96 -85 5 -125 30 -181 115 -23 35 -56 76 -74 92 -59 51 -172 60 -237 17 -27
-18 -58 -80 -58 -118 0 -20 -1 -21 -20 -3 -25 22 -27 90 -4 123 42 60 204 86
320 51z m1971 -5 c45 -14 56 -23 73 -59 43 -88 14 -205 -51 -205 -29 0 -30 1
-24 33 4 17 8 39 11 47 2 9 -6 36 -18 60 -28 54 -77 83 -133 77 -22 -2 -160
-40 -306 -85 -253 -78 -348 -97 -363 -73 -3 5 15 12 41 16 76 11 166 43 320
111 241 107 320 121 450 78z m572 -34 c37 -54 43 -69 48 -131 l6 -71 -38 16
c-20 9 -39 16 -41 16 -2 0 -26 -20 -54 -45 -42 -38 -55 -44 -78 -39 -43 10
-88 50 -111 97 -29 59 -27 81 13 124 37 41 37 41 51 -40 5 -34 12 -41 51 -58
57 -26 78 -19 111 38 l27 46 -22 41 c-45 85 -22 89 37 6z m-3383 8 c128 -31
162 -43 149 -51 -25 -14 -145 -1 -208 23 -47 18 -132 70 -114 70 4 0 82 -19
173 -42z m-840 7 c8 -19 -11 -42 -49 -61 -28 -15 -29 -15 -21 8 18 58 57 87
70 53z m2437 -112 c35 -51 36 -101 2 -141 -46 -55 -117 -46 -151 19 -19 37
-13 46 22 30 34 -15 63 -6 75 26 16 42 10 65 -26 100 -19 19 -42 48 -51 65
-16 30 -15 30 43 -15 32 -25 71 -63 86 -84z m2744 101 c44 -28 54 -54 43 -118
-10 -61 -23 -86 -46 -86 -10 0 -14 13 -14 43 0 54 -15 69 -92 91 -70 20 -96
20 -163 0 -30 -8 -78 -14 -107 -12 l-53 3 145 52 c132 48 150 52 205 47 33 -3
70 -12 82 -20z m-5369 -36 c26 -26 7 -78 -27 -78 -9 0 -25 7 -35 15 -19 15
-19 16 9 45 32 34 36 35 53 18z m-175 -32 c3 -8 -1 -22 -8 -33 -13 -17 -14
-16 -15 15 0 33 13 43 23 18z m641 -27 c28 -12 76 -36 106 -54 30 -18 74 -39
98 -46 23 -7 42 -18 42 -26 0 -23 -83 -5 -197 43 -168 72 -253 58 -269 -45 -4
-23 -12 -41 -19 -41 -22 0 -65 60 -65 91 0 41 47 90 96 100 55 11 148 1 208
-22z m1280 -5 c18 -7 22 -39 6 -49 -17 -11 -50 5 -50 24 0 29 14 37 44 25z
m-1841 -41 c20 -18 23 -63 5 -81 -17 -17 -78 -15 -100 5 -24 22 -23 52 4 80
25 26 58 25 91 -4z m1967 2 c14 -16 6 -35 -16 -35 -8 0 -14 10 -14 25 0 28 12
32 30 10z m-1792 -37 c29 -29 -1 -88 -44 -88 -29 0 -54 25 -54 54 0 31 18 46
55 46 17 0 36 -5 43 -12z m1672 -38 c12 -7 7 -12 -22 -25 -43 -17 -110 -20
-139 -5 -34 18 -21 29 29 24 26 -3 58 -1 72 5 32 13 42 13 60 1z m155 -40 c0
-21 -5 -26 -32 -28 -29 -3 -33 0 -33 21 0 31 9 39 40 35 19 -2 25 -9 25 -28z"/>
<path d="M3186 5568 c-23 -33 -20 -81 7 -106 22 -20 47 -29 47 -17 0 4 -7 20
-16 37 -11 21 -14 43 -10 70 7 43 -5 50 -28 16z"/>
<path d="M3099 5570 c-20 -11 -32 -54 -24 -80 3 -10 20 -23 37 -29 29 -10 30
-9 24 12 -3 12 -6 41 -6 65 0 44 -4 48 -31 32z"/>
<path d="M3680 5412 c0 -6 24 -18 53 -28 28 -9 105 -41 170 -71 107 -49 137
-56 137 -34 0 10 -142 84 -210 110 -67 25 -150 38 -150 23z"/>
<path d="M3762 5314 c2 -12 32 -29 87 -51 47 -18 87 -31 89 -28 9 9 -10 24
-46 36 -20 6 -59 23 -85 36 -43 21 -48 22 -45 7z"/>
<path d="M4047 5104 c-4 -4 -7 -44 -6 -88 l1 -81 23 50 c18 38 22 58 17 84 -7
34 -22 48 -35 35z"/>
<path d="M950 5410 c0 -35 -6 -65 -17 -80 -14 -22 -13 -22 15 4 35 33 40 65
17 106 -14 24 -14 23 -15 -30z"/>
<path d="M4655 5472 c-49 -17 -50 -18 -53 -62 l-3 -45 40 43 c22 23 45 42 50
42 5 0 22 5 38 11 22 8 24 12 13 19 -20 13 -26 12 -85 -8z"/>
<path d="M4710 5401 c-24 -12 -36 -26 -38 -45 -2 -14 0 -26 5 -26 4 1 30 21
58 45 38 35 45 45 30 45 -11 0 -36 -8 -55 -19z"/>
<path d="M4795 5381 c-16 -10 -38 -27 -48 -38 -16 -19 -16 -21 -1 -34 13 -11
18 -11 21 -2 3 7 24 22 49 34 28 14 44 29 44 41 0 23 -27 23 -65 -1z"/>
<path d="M5070 5099 c0 -6 19 -28 43 -49 33 -29 48 -54 66 -106 30 -87 40 -99
30 -36 -11 70 -47 148 -81 177 -31 26 -58 33 -58 14z"/>
<path d="M5460 4962 c0 -20 61 -42 112 -41 l53 2 -45 6 c-25 4 -59 15 -77 24
-36 19 -43 21 -43 9z"/>
<path d="M2565 4940 c-6 -9 10 -18 135 -73 75 -33 135 -88 170 -156 32 -62 37
-59 15 11 -27 90 -93 148 -228 201 -75 30 -83 31 -92 17z"/>
<path d="M5360 4687 c0 -3 15 -35 34 -69 19 -35 42 -99 51 -143 21 -97 30
-118 41 -91 9 23 -22 169 -46 216 -17 33 -80 102 -80 87z"/>
<path d="M675 4107 c-10 -62 -28 -137 -40 -167 -12 -30 -25 -71 -29 -90 -5
-29 2 -22 38 42 46 81 66 161 66 267 0 87 -16 64 -35 -52z"/>
<path d="M687 3550 c-5 -25 -15 -64 -23 -88 -21 -65 -16 -73 12 -19 19 37 24
60 22 100 l-3 52 -8 -45z"/>
<path d="M566 3445 c-20 -21 -36 -79 -36 -135 0 -31 -12 -68 -39 -125 -21 -44
-42 -96 -46 -115 -12 -67 91 141 129 258 20 61 36 116 36 122 0 15 -27 12 -44
-5z"/>
<path d="M748 2836 c-20 -7 -28 -17 -28 -33 0 -29 11 -29 39 1 29 31 24 45
-11 32z"/>
<path d="M619 2663 c-18 -32 -45 -77 -61 -100 -25 -37 -38 -80 -87 -287 -9
-40 3 -106 19 -106 6 0 10 29 10 66 0 97 26 199 76 291 45 84 87 184 80 190
-2 3 -19 -22 -37 -54z"/>
<path d="M516 2684 c-22 -21 -20 -27 4 -14 11 6 20 15 20 20 0 14 -6 12 -24
-6z"/>
<path d="M406 2647 c19 -40 56 -51 68 -21 9 23 8 24 -14 24 -12 0 -32 7 -46
17 l-25 16 17 -36z"/>
<path d="M384 2581 c8 -42 25 -64 44 -56 9 3 18 1 22 -5 4 -6 16 0 30 15 l23
25 -33 0 c-23 0 -43 9 -63 28 l-30 27 7 -34z"/>
<path d="M772 2533 c-10 -15 -30 -48 -42 -73 -12 -25 -47 -84 -76 -132 -30
-48 -54 -91 -54 -95 0 -21 87 82 120 142 41 75 83 175 76 182 -2 2 -13 -8 -24
-24z"/>
<path d="M659 2475 c-7 -16 -30 -50 -51 -74 -44 -51 -42 -68 3 -25 35 33 72
100 66 117 -2 7 -10 -1 -18 -18z"/>
<path d="M940 2108 c-26 -43 -25 -48 5 -48 23 0 25 4 25 40 0 22 -2 40 -5 40
-3 0 -14 -15 -25 -32z"/>
<path d="M853 1995 c-20 -19 -21 -24 -9 -40 12 -17 18 -18 40 -7 30 13 33 33
9 54 -16 13 -20 12 -40 -7z"/>
<path d="M778 1829 c-69 -91 -121 -194 -148 -291 -24 -88 -32 -258 -12 -265 8
-3 12 6 12 25 0 81 83 329 165 494 25 51 44 96 42 101 -1 5 -28 -24 -59 -64z"/>
<path d="M490 1775 c0 -28 20 -55 41 -55 30 0 99 38 99 55 0 17 -26 20 -36 4
-7 -11 -55 -8 -86 6 -13 5 -18 3 -18 -10z"/>
<path d="M980 1683 c-30 -36 -65 -72 -77 -81 -22 -14 -32 -52 -14 -52 22 0 41
13 41 28 0 9 17 36 38 61 21 25 47 59 57 74 33 52 10 36 -45 -30z"/>
<path d="M862 1678 c-44 -35 -65 -66 -34 -49 19 11 89 81 80 81 -3 0 -24 -15
-46 -32z"/>
<path d="M507 1669 c23 -23 52 -22 88 5 19 14 15 15 -45 16 l-64 0 21 -21z"/>
<path d="M480 1615 c0 -2 14 -12 31 -20 25 -13 36 -14 66 -4 26 8 32 14 22 20
-14 9 -119 13 -119 4z"/>
<path d="M682 1346 c-21 -45 -21 -46 -2 -46 14 0 21 9 26 34 10 56 0 61 -24
12z"/>
<path d="M4523 4413 c-21 -4 -39 -45 -28 -63 9 -15 51 -12 65 4 13 17 10 58
-5 61 -5 1 -20 0 -32 -2z"/>
<path d="M3107 4396 c-5 -11 2 -26 19 -43 22 -21 32 -25 66 -20 56 8 72 26 17
20 -39 -5 -45 -2 -69 27 -23 28 -28 30 -33 16z"/>
<path d="M4753 4332 c50 -55 66 -83 92 -162 10 -30 24 -64 30 -75 7 -11 19
-38 26 -60 l13 -40 7 35 c6 28 1 52 -27 119 -20 47 -44 96 -56 110 -38 50
-109 121 -120 121 -6 0 10 -22 35 -48z"/>
<path d="M4571 4291 c-15 -28 -14 -31 14 -31 28 0 33 21 11 39 -12 10 -17 8
-25 -8z"/>
<path d="M4169 4263 c-29 -34 -29 -41 7 -127 60 -143 66 -128 26 62 -16 78
-18 83 -33 65z"/>
<path d="M4240 4193 c0 -78 13 -123 38 -131 10 -3 12 12 6 74 -6 69 -25 134
-39 134 -3 0 -5 -35 -5 -77z"/>
<path d="M3180 4175 c-17 -21 -4 -35 35 -35 41 0 55 18 30 37 -24 17 -50 17
-65 -2z"/>
<path d="M3303 4163 c-7 -2 -13 -13 -13 -24 0 -23 32 -26 50 -4 20 25 -3 42
-37 28z"/>
<path d="M3401 4151 c-14 -9 -7 -51 9 -51 24 0 40 15 40 36 0 25 -22 32 -49
15z"/>
<path d="M3486 4128 c-4 -16 0 -28 15 -40 28 -24 39 -23 39 3 0 51 -42 80 -54
37z"/>
<path d="M3816 4139 c17 -29 88 -118 92 -115 2 3 -45 105 -52 112 0 1 -12 5
-25 9 -18 6 -22 4 -15 -6z"/>
<path d="M3580 4090 c0 -28 1 -29 25 -18 24 11 24 12 9 30 -24 26 -34 22 -34
-12z"/>
<path d="M3836 3993 c14 -32 29 -62 33 -68 4 -5 18 -38 31 -73 23 -63 43 -76
48 -31 6 48 -95 229 -128 229 -5 0 3 -26 16 -57z"/>
<path d="M4790 3890 c-12 -12 -28 -37 -36 -56 -8 -19 -29 -58 -47 -87 -51 -80
-59 -103 -42 -117 31 -26 65 17 65 80 0 16 4 31 9 35 13 7 83 156 77 162 -2 3
-14 -5 -26 -17z"/>
<path d="M4803 3739 c-14 -5 -37 -38 -63 -89 -22 -44 -38 -80 -36 -80 6 0 128
171 125 174 -2 2 -14 0 -26 -5z"/>
<path d="M5692 3583 c-11 -27 -23 -59 -27 -73 -4 -14 -23 -49 -41 -77 -19 -29
-31 -53 -27 -53 21 0 75 57 97 102 28 58 45 148 29 148 -6 0 -20 -21 -31 -47z"/>
<path d="M4878 3247 c-71 -10 -82 -19 -47 -37 16 -9 32 -6 82 19 67 32 65 33
-35 18z"/>
<path d="M4546 3021 c-8 -12 21 -34 34 -26 17 11 11 35 -9 35 -11 0 -22 -4
-25 -9z"/>
<path d="M4627 2990 c-7 -26 28 -48 37 -24 11 28 6 44 -13 44 -10 0 -21 -9
-24 -20z"/>
<path d="M4762 2983 c-7 -3 -17 -13 -22 -24 -9 -16 -7 -19 8 -19 12 0 22 9 25
22 7 26 6 27 -11 21z"/>
<path d="M5003 2824 c-3 -8 0 -21 6 -27 10 -9 16 -8 27 7 8 11 14 23 14 28 0
15 -41 8 -47 -8z"/>
<path d="M4940 2792 c0 -19 27 -44 44 -41 15 3 12 8 -13 27 -17 12 -31 19 -31
14z"/>
<path d="M4870 2735 c-11 -13 -8 -15 13 -15 19 0 25 4 21 15 -4 8 -10 15 -14
15 -4 0 -13 -7 -20 -15z"/>
<path d="M1011 3580 c-18 -4 -50 -25 -70 -45 l-36 -38 80 43 c44 24 82 45 84
47 7 5 -21 2 -58 -7z"/>
<path d="M948 3470 c-24 -16 -53 -40 -64 -52 -10 -13 -12 -18 -4 -12 32 24
115 86 119 90 14 13 -12 0 -51 -26z"/>
<path d="M2883 3527 c-87 -92 -130 -154 -154 -223 -34 -97 -22 -105 27 -15 54
101 121 197 175 251 37 37 49 60 30 60 -5 0 -40 -33 -78 -73z"/>
<path d="M3103 3285 c-9 -25 4 -29 17 -6 7 15 7 21 0 21 -6 0 -13 -7 -17 -15z"/>
<path d="M3022 3238 c2 -18 11 -24 37 -26 28 -3 33 -1 27 13 -3 9 -6 21 -6 26
0 5 -14 9 -31 9 -26 0 -30 -3 -27 -22z"/>
<path d="M2934 3166 c-16 -12 -16 -15 -4 -20 40 -14 55 -11 58 12 4 26 -23 30
-54 8z"/>
<path d="M2570 3080 c14 -11 41 -20 60 -20 l35 0 -38 20 c-20 11 -47 20 -59
20 l-23 0 25 -20z"/>
<path d="M2549 3012 c23 -44 71 -53 124 -25 l32 18 -55 6 c-30 3 -68 9 -84 14
-26 7 -27 6 -17 -13z"/>
<path d="M3124 2871 c-64 -45 -102 -86 -91 -98 3 -2 14 0 24 5 20 12 151 142
142 142 -3 0 -37 -22 -75 -49z"/>
<path d="M3111 2773 c-66 -65 -121 -122 -121 -127 0 -9 66 39 137 100 51 44
120 131 110 140 -2 3 -59 -49 -126 -113z"/>
<path d="M2746 2458 c-20 -46 -21 -112 -2 -127 12 -10 15 0 21 63 9 92 3 113
-19 64z"/>
<path d="M3893 3284 c-3 -8 1 -22 9 -30 13 -13 16 -13 28 0 10 13 10 19 0 31
-16 19 -29 19 -37 -1z"/>
<path d="M3792 3258 c-17 -17 -15 -32 8 -46 18 -11 20 -10 20 17 0 34 -12 45
-28 29z"/>
<path d="M3685 3201 c-8 -27 1 -41 26 -41 16 0 20 6 17 27 -4 34 -33 43 -43
14z"/>
<path d="M5720 2872 c1 -23 49 -61 105 -82 l27 -10 -20 32 c-14 22 -37 39 -66
50 -25 10 -46 14 -46 10z"/>
<path d="M5720 2740 c-12 -8 -10 -10 10 -10 14 0 43 -9 65 -20 64 -33 86 -23
42 18 -25 24 -89 30 -117 12z"/>
<path d="M5556 2648 c-22 -22 -37 -51 -46 -86 -20 -86 7 -86 36 0 9 28 26 67
36 85 25 42 15 42 -26 1z"/>
<path d="M5625 2318 c-53 -61 -95 -158 -67 -158 9 0 82 113 104 162 22 50 8
48 -37 -4z"/>
<path d="M5630 2228 c-23 -39 -26 -68 -6 -68 12 0 56 73 56 93 0 20 -33 3 -50
-25z"/>
<path d="M3850 2565 c0 -18 5 -25 20 -25 23 0 24 4 10 31 -15 27 -30 24 -30
-6z"/>
<path d="M3336 1938 c8 -23 168 -130 173 -116 2 6 -2 14 -9 16 -7 3 -29 19
-49 37 -42 38 -123 82 -115 63z"/>
<path d="M3272 1902 c31 -43 66 -79 104 -104 49 -34 54 -34 54 -4 0 18 -17 34
-80 75 -87 56 -98 60 -78 33z"/>
<path d="M3960 1623 l1 -78 24 40 c29 47 31 63 9 93 -26 38 -34 25 -34 -55z"/>
<path d="M3855 1619 c-4 -38 -4 -73 -1 -76 13 -13 44 30 49 70 5 40 -11 77
-34 77 -4 0 -10 -32 -14 -71z"/>
<path d="M4047 1643 c-11 -10 -8 -71 3 -78 6 -3 13 2 17 12 3 10 15 25 26 34
11 9 17 21 13 28 -8 12 -48 15 -59 4z"/>
<path d="M2915 1776 l-40 -12 85 -12 c102 -14 123 -15 115 -3 -4 8 -106 43
-117 40 -1 0 -21 -6 -43 -13z"/>
<path d="M2688 1500 c-40 -22 -58 -41 -31 -33 17 4 84 53 73 53 -3 -1 -22 -10
-42 -20z"/>
<path d="M3253 1540 c-13 -5 -23 -16 -23 -25 0 -12 4 -13 18 -6 22 12 48 41
36 40 -5 0 -19 -4 -31 -9z"/>
<path d="M5627 1094 c-11 -11 3 -24 24 -24 12 0 19 5 17 13 -5 14 -31 21 -41
11z"/>
<path d="M1024 1348 c3 -12 10 -59 16 -102 11 -87 13 -91 30 -81 15 10 4 129
-16 167 -19 36 -36 46 -30 16z"/>
<path d="M990 1017 c-18 -76 -36 -89 -109 -76 -58 11 -64 10 -55 -15 8 -20 45
-31 106 -30 81 1 99 34 79 139 l-7 40 -14 -58z"/>
</g>
</svg>
