<svg width="120" height="45" viewBox="0 0 120 45" fill="none" xmlns="http://www.w3.org/2000/svg">
<g clip-path="url(#clip0_261_30)">
<path d="M61.9537 14.7612L67.6628 14.3922C67.7931 15.3256 68.0318 16.0203 68.4226 16.5195C69.0521 17.301 69.9204 17.6918 71.0709 17.6918C71.9175 17.6918 72.5904 17.4964 73.0463 17.0839C73.4805 16.7583 73.741 16.2373 73.741 15.6946C73.741 15.1737 73.5022 14.6744 73.0897 14.3488C72.6556 13.958 71.6353 13.5673 70.0289 13.22C67.4023 12.6339 65.5137 11.8524 64.4067 10.8538C63.2996 9.92041 62.67 8.55282 62.7135 7.09841C62.7135 6.09986 63.0174 5.10131 63.5818 4.27641C64.233 3.34298 65.123 2.60492 66.1867 2.19248C67.3372 1.6932 68.9436 1.43271 70.9624 1.43271C73.437 1.43271 75.3256 1.88857 76.6281 2.822C77.9305 3.73372 78.712 5.20984 78.9508 7.22866L73.3068 7.55427C73.1548 6.68596 72.8509 6.05644 72.3517 5.644C71.8524 5.23155 71.2012 5.03618 70.3546 5.03618C69.6599 5.03618 69.1389 5.18814 68.7916 5.47034C68.466 5.73083 68.2489 6.12157 68.2706 6.55572C68.2706 6.88133 68.4443 7.18524 68.7048 7.38061C68.987 7.6411 69.6599 7.87989 70.7236 8.09696C73.3502 8.66136 75.2171 9.22576 76.3676 9.81187C77.5181 10.398 78.343 11.1143 78.8423 11.9609C79.3632 12.8292 79.6237 13.8278 79.602 14.848C79.602 16.0637 79.2547 17.2793 78.5601 18.2996C77.8437 19.3632 76.8451 20.1881 75.6729 20.6874C74.4356 21.2301 72.8726 21.5123 71.0058 21.5123C67.7062 21.5123 65.4269 20.8828 64.1462 19.602C62.8654 18.3213 62.1056 16.7149 61.9537 14.7612ZM1.36758 21.1867V1.78003H11.3748C13.22 1.78003 14.6527 1.93199 15.6295 2.2576C16.5847 2.56151 17.4313 3.19103 17.9957 4.03763C18.6252 4.97106 18.9291 6.05644 18.9074 7.18524C18.9725 9.09552 17.9957 10.919 16.3242 11.8741C15.6729 12.2431 14.9566 12.5036 14.2185 12.6339C14.7612 12.7858 15.3039 13.0463 15.7815 13.3502C16.1505 13.6541 16.4544 14.0014 16.7366 14.3705C17.0622 14.7395 17.3444 15.152 17.5832 15.5861L20.492 21.2084H13.6758L10.4631 15.2388C10.0507 14.479 9.70333 13.9797 9.37771 13.741C8.94356 13.4371 8.42258 13.2851 7.90159 13.2851H7.38061V21.165H1.36758V21.1867ZM7.38061 9.63821H9.9204C10.4631 9.59479 10.9841 9.50796 11.5051 9.37772C11.8958 9.31259 12.2431 9.09552 12.4819 8.7699C13.068 7.98843 12.9812 6.88133 12.2648 6.2084C11.8741 5.88278 11.1143 5.70912 10.0289 5.70912H7.38061V9.63821ZM0 37.8148L5.70912 37.4457C5.83936 38.3792 6.07815 39.0738 6.46889 39.5731C7.0767 40.3546 7.96671 40.767 9.11722 40.767C9.96382 40.767 10.6368 40.5716 11.0926 40.1592C11.5268 39.8119 11.7873 39.3126 11.7873 38.7699C11.7873 38.2489 11.5485 37.7496 11.136 37.424C10.7019 37.0333 9.68162 36.6425 8.05354 36.2952C5.42692 35.7091 3.53835 34.9276 2.43126 33.9291C1.32417 32.9957 0.694645 31.6281 0.738061 30.1737C0.738061 29.1751 1.04197 28.1766 1.60637 27.3517C2.2576 26.4182 3.14761 25.6802 4.21129 25.2677C5.36179 24.7685 6.96816 24.508 8.98698 24.508C11.4616 24.508 13.3502 24.9638 14.6527 25.8973C15.9551 26.8307 16.7149 28.2851 16.9537 30.3039L11.3097 30.6295C11.1577 29.7612 10.8538 29.1317 10.3546 28.7193C9.87699 28.3068 9.20405 28.1114 8.35745 28.1331C7.66281 28.1331 7.14182 28.2851 6.7945 28.589C6.44718 28.8495 6.25181 29.2402 6.27352 29.6744C6.27352 30 6.44718 30.3039 6.70767 30.4993C6.98987 30.7598 7.66281 30.9986 8.72648 31.2156C11.3531 31.78 13.22 32.3444 14.3705 32.9305C15.521 33.5166 16.3459 34.233 16.8452 35.0796C17.3661 35.9479 17.6266 36.9465 17.6266 37.945C17.6266 39.1606 17.2576 40.3546 16.5847 41.3748C15.8683 42.4385 14.8698 43.2634 13.6975 43.7627C12.4602 44.3054 10.8972 44.5876 9.03039 44.5876C5.73082 44.5876 3.45152 43.958 2.17077 42.6773C0.890014 41.3748 0.173661 39.7685 0 37.8148Z" fill="black"/>
<path d="M28.8712 36.2952L34.1244 37.8799C33.8422 39.2041 33.2561 40.4631 32.453 41.5702C31.7149 42.547 30.738 43.3068 29.631 43.8061C28.5022 44.3054 27.0694 44.5659 25.3328 44.5659C23.2272 44.5659 21.4906 44.2619 20.1664 43.6541C18.8205 43.0463 17.67 41.9609 16.6932 40.4197C15.7163 38.8784 15.2388 36.903 15.2388 34.4935C15.2388 31.2808 16.0854 28.8061 17.8003 27.0912C19.5152 25.3763 21.9247 24.508 25.0506 24.508C27.5036 24.508 29.4139 25.0072 30.8249 25.9841C32.2142 26.9826 33.2561 28.5022 33.9508 30.5427L28.6541 31.7149C28.5239 31.2591 28.3285 30.8032 28.068 30.4125C27.7424 29.9566 27.3299 29.6093 26.8307 29.3488C26.3314 29.0883 25.767 28.9797 25.2026 28.9797C23.835 28.9797 22.793 29.5224 22.0767 30.6295C21.534 31.4327 21.2518 32.7135 21.2518 34.4501C21.2518 36.5991 21.5774 38.0753 22.2286 38.8784C22.8799 39.6816 23.7916 40.0724 24.9855 40.0724C26.136 40.0724 27.0043 39.7467 27.5904 39.1172C28.1765 38.4443 28.6107 37.5109 28.8712 36.2952ZM41.136 24.8336H47.1273V31.6281H53.6831V24.8336H59.7178V44.2402H53.6831V36.3821H47.1273V44.2402H41.136V24.8336Z" fill="black"/>
<path d="M58.8929 34.5369C58.8929 31.3676 59.7829 28.8929 61.5412 27.1346C63.2995 25.3763 65.7742 24.4863 68.9218 24.4863C72.1563 24.4863 74.6309 25.3546 76.3893 27.0912C78.1476 28.8278 79.0159 31.2591 79.0159 34.385C79.0159 36.6643 78.6252 38.5094 77.8654 39.9638C77.1273 41.3965 75.9768 42.5688 74.5658 43.3502C73.1114 44.1534 71.3097 44.5659 69.1606 44.5659C66.9681 44.5659 65.1664 44.2185 63.7337 43.5239C62.2576 42.7858 61.0419 41.6353 60.2388 40.2243C59.3487 38.7048 58.8929 36.8162 58.8929 34.5369ZM64.8842 34.5586C64.8842 36.5123 65.2532 37.9233 65.9696 38.7916C66.6859 39.6382 67.6845 40.0724 68.9435 40.0724C70.2243 40.0724 71.2228 39.6599 71.9392 38.8133C72.6555 37.9667 73.0029 36.4689 73.0029 34.2981C73.0029 32.4747 72.6338 31.1288 71.8958 30.3039C71.1577 29.4573 70.1592 29.0449 68.9001 29.0449C67.793 29.0015 66.7294 29.479 65.9913 30.3256C65.2532 31.1722 64.8842 32.5832 64.8842 34.5586ZM85.1592 34.5369C85.1592 31.3676 86.0492 28.8929 87.8075 27.1346C89.5658 25.3763 92.0405 24.4863 95.1881 24.4863C98.4226 24.4863 100.919 25.3546 102.656 27.0912C104.392 28.8278 105.282 31.2591 105.282 34.385C105.282 36.6643 104.891 38.5094 104.132 39.9638C103.394 41.3965 102.243 42.5688 100.832 43.3502C99.3777 44.1534 97.576 44.5659 95.4269 44.5659C93.2344 44.5659 91.4327 44.2185 90 43.5239C88.5239 42.7858 87.3082 41.6353 86.505 40.2243C85.615 38.7048 85.1592 36.8162 85.1592 34.5369ZM91.1505 34.5586C91.1505 36.5123 91.5195 37.9233 92.2359 38.7916C92.9522 39.6382 93.9508 40.0724 95.2098 40.0724C96.4906 40.0724 97.4891 39.6599 98.2055 38.8133C98.9218 37.9667 99.2692 36.4689 99.2692 34.2981C99.2692 32.4747 98.9001 31.1288 98.1621 30.3039C97.424 29.4573 96.4254 29.0449 95.1664 29.0449C94.0593 29.0015 92.9739 29.479 92.2576 30.3256C91.5195 31.1722 91.1505 32.5832 91.1505 34.5586Z" fill="black"/>
<path d="M104.653 24.8336H110.644V39.4646H120V44.2402H104.631V24.8336H104.653Z" fill="black"/>
<path d="M98.0489 23.7136C104.081 19.168 105.941 11.4625 102.204 6.50291C98.466 1.54328 90.5463 1.20764 84.5143 5.75322C78.4824 10.2988 76.6223 18.0043 80.3598 22.9639C84.0973 27.9236 92.017 28.2592 98.0489 23.7136Z" fill="white"/>
<mask id="mask0_261_30" style="mask-type:luminance" maskUnits="userSpaceOnUse" x="78" y="2" width="27" height="25">
<path d="M98.0489 23.7136C104.081 19.168 105.941 11.4625 102.204 6.50291C98.466 1.54328 90.5463 1.20764 84.5143 5.75322C78.4824 10.2988 76.6223 18.0043 80.3598 22.9639C84.0973 27.9236 92.017 28.2592 98.0489 23.7136Z" fill="white"/>
</mask>
<g mask="url(#mask0_261_30)">
<path d="M64.9764 12.2737L96.1471 -11.216L117.716 17.4062L86.5456 40.8959L64.9764 12.2737Z" fill="white"/>
<mask id="mask1_261_30" style="mask-type:luminance" maskUnits="userSpaceOnUse" x="64" y="-12" width="54" height="53">
<path d="M64.9764 12.2737L96.1471 -11.216L117.716 17.4062L86.5456 40.8959L64.9764 12.2737Z" fill="white"/>
</mask>
<g mask="url(#mask1_261_30)">
<path d="M98.0489 23.7136C104.081 19.168 105.941 11.4625 102.203 6.50291C98.466 1.54328 90.5462 1.20764 84.5143 5.75322C78.4823 10.2988 76.6222 18.0043 80.3597 22.9639C84.0972 27.9236 92.0169 28.2592 98.0489 23.7136Z" fill="white"/>
<mask id="mask2_261_30" style="mask-type:luminance" maskUnits="userSpaceOnUse" x="78" y="2" width="27" height="25">
<path d="M98.0489 23.7136C104.081 19.168 105.941 11.4625 102.203 6.50291C98.466 1.54328 90.5462 1.20764 84.5143 5.75322C78.4823 10.2988 76.6222 18.0043 80.3597 22.9639C84.0972 27.9236 92.0169 28.2592 98.0489 23.7136Z" fill="white"/>
</mask>
<g mask="url(#mask2_261_30)">
<path d="M73.6564 14.1848L95.4831 -2.26274L109.03 15.7152L87.2037 32.1628L73.6564 14.1848Z" fill="white"/>
<mask id="mask3_261_30" style="mask-type:luminance" maskUnits="userSpaceOnUse" x="73" y="-3" width="37" height="36">
<path d="M73.6564 14.1848L95.4831 -2.26274L109.03 15.7152L87.2037 32.1628L73.6564 14.1848Z" fill="white"/>
</mask>
<g mask="url(#mask3_261_30)">
<path d="M98.0489 23.7136C104.081 19.168 105.941 11.4625 102.203 6.50291C98.466 1.54328 90.5462 1.20764 84.5143 5.75322C78.4823 10.2988 76.6222 18.0043 80.3597 22.9639C84.0972 27.9236 92.0169 28.2592 98.0489 23.7136Z" fill="white" stroke="black" stroke-width="4" stroke-miterlimit="10"/>
</g>
<mask id="mask4_261_30" style="mask-type:luminance" maskUnits="userSpaceOnUse" x="76" y="-2" width="30" height="34">
<path d="M76.7667 24.9816L84.2999 -1.28962L105.939 4.91521L98.4055 31.1865L76.7667 24.9816Z" fill="white"/>
</mask>
<g mask="url(#mask4_261_30)">
<path d="M73.6564 14.1848L95.4831 -2.26274L109.03 15.7152L87.2038 32.1628L73.6564 14.1848Z" stroke="black" stroke-width="4" stroke-miterlimit="10"/>
</g>
<path d="M98.0489 23.7136C104.081 19.168 105.941 11.4625 102.203 6.50291C98.466 1.54328 90.5462 1.20764 84.5143 5.75322C78.4823 10.2988 76.6222 18.0043 80.3597 22.9639C84.0972 27.9236 92.0169 28.2592 98.0489 23.7136Z" stroke="black" stroke-width="4" stroke-miterlimit="10"/>
<path d="M73.6564 14.1848L95.4831 -2.26274L109.03 15.7152L87.2037 32.1628L73.6564 14.1848Z" fill="white"/>
<mask id="mask5_261_30" style="mask-type:luminance" maskUnits="userSpaceOnUse" x="73" y="-3" width="37" height="36">
<path d="M73.6564 14.1848L95.4831 -2.26274L109.03 15.7152L87.2037 32.1628L73.6564 14.1848Z" fill="white"/>
</mask>
<g mask="url(#mask5_261_30)">
<path d="M98.0489 23.7136C104.081 19.168 105.941 11.4625 102.203 6.50291C98.466 1.54328 90.5462 1.20764 84.5143 5.75322C78.4823 10.2988 76.6222 18.0043 80.3597 22.9639C84.0972 27.9236 92.0169 28.2592 98.0489 23.7136Z" fill="white" stroke="black" stroke-width="4" stroke-miterlimit="10"/>
</g>
<mask id="mask6_261_30" style="mask-type:luminance" maskUnits="userSpaceOnUse" x="76" y="-2" width="30" height="34">
<path d="M76.7667 24.9816L84.2999 -1.28962L105.939 4.91521L98.4055 31.1865L76.7667 24.9816Z" fill="white"/>
</mask>
<g mask="url(#mask6_261_30)">
<path d="M73.6564 14.1848L95.4831 -2.26274L109.03 15.7152L87.2038 32.1628L73.6564 14.1848Z" stroke="black" stroke-width="4" stroke-miterlimit="10"/>
</g>
<path d="M64.9764 12.2737L96.1471 -11.216L117.716 17.4062L86.5456 40.8959L64.9764 12.2737Z" stroke="black" stroke-width="4" stroke-miterlimit="10"/>
</g>
<path d="M98.0489 23.7136C104.081 19.168 105.941 11.4625 102.203 6.50291C98.466 1.54328 90.5462 1.20764 84.5143 5.75322C78.4823 10.2988 76.6222 18.0043 80.3597 22.9639C84.0972 27.9236 92.0169 28.2592 98.0489 23.7136Z" stroke="black" stroke-width="4" stroke-miterlimit="10"/>
<path d="M85.1809 13.3068L87.3516 11.7873L90.0217 15.5861C90.4776 16.1939 90.8249 16.8452 91.0854 17.5615C91.2373 18.1042 91.1939 18.6903 90.9768 19.2113C90.6946 19.8625 90.2388 20.4052 89.631 20.796C88.9146 21.2952 88.3068 21.5774 87.7858 21.6643C87.2865 21.7511 86.7655 21.6643 86.288 21.4472C85.767 21.1867 85.3111 20.8177 84.9638 20.3401L86.8307 18.6035C86.9826 18.8423 87.178 19.0593 87.3951 19.233C87.547 19.3415 87.7207 19.4067 87.9161 19.4067C88.068 19.4067 88.22 19.3415 88.3285 19.2547C88.5456 19.1245 88.6975 18.864 88.6758 18.6035C88.6107 18.2345 88.4587 17.8654 88.22 17.5832L85.1809 13.3068ZM91.6932 15.7164L93.6686 14.1534C93.8857 14.4139 94.1679 14.6093 94.4718 14.7178C94.9059 14.8481 95.3618 14.7612 95.7308 14.479C95.9913 14.3054 96.2084 14.0666 96.2952 13.7627C96.4255 13.3719 96.2084 12.9378 95.8176 12.8075C95.7525 12.7858 95.6874 12.7641 95.6223 12.7641C95.3618 12.7424 94.9059 12.851 94.233 13.1332C93.1259 13.589 92.2576 13.7627 91.6064 13.6976C90.9768 13.6324 90.3907 13.3068 90.0434 12.7641C89.7829 12.3951 89.6527 11.9609 89.631 11.5268C89.631 11.0275 89.7612 10.5282 90.0434 10.1158C90.4558 9.52968 90.9551 9.03041 91.5629 8.63967C92.4747 8.01015 93.2778 7.70624 93.9725 7.70624C94.6671 7.70624 95.3184 8.03185 95.9262 8.70479L93.9725 10.246C93.5818 9.74676 92.8437 9.63822 92.3444 10.029L92.2793 10.0941C92.0622 10.2243 91.9103 10.4197 91.8234 10.6585C91.7583 10.8321 91.8017 11.0275 91.9103 11.1795C91.9971 11.288 92.1273 11.3748 92.2793 11.3748C92.453 11.3965 92.7569 11.3097 93.191 11.1143C94.2764 10.6585 95.1013 10.398 95.6657 10.3112C96.1433 10.2243 96.6425 10.2677 97.0984 10.4631C97.5108 10.6368 97.8582 10.9407 98.0969 11.3097C98.4009 11.7439 98.5745 12.2648 98.5962 12.8075C98.6179 13.3719 98.466 13.9146 98.1621 14.3922C97.7713 14.9783 97.2721 15.4776 96.6859 15.8683C95.492 16.6932 94.5152 17.0405 93.7337 16.9103C92.8871 16.78 92.1925 16.3459 91.6932 15.7164Z" fill="black"/>
</g>
</g>
</g>
<defs>
<clipPath id="clip0_261_30">
<rect width="120" height="44.5658" fill="white"/>
</clipPath>
</defs>
</svg>
